<?xml version="1.0" encoding="UTF-8" standalone="no"?>
<svg
   xmlns:dc="http://purl.org/dc/elements/1.1/"
   xmlns:cc="http://creativecommons.org/ns#"
   xmlns:rdf="http://www.w3.org/1999/02/22-rdf-syntax-ns#"
   xmlns:svg="http://www.w3.org/2000/svg"
   xmlns="http://www.w3.org/2000/svg"
   xmlns:sodipodi="http://sodipodi.sourceforge.net/DTD/sodipodi-0.dtd"
   xmlns:inkscape="http://www.inkscape.org/namespaces/inkscape"
   width="150mm"
   height="34mm"
   viewBox="0 0 150 34"
   version="1.1"
   id="svg2114"
   inkscape:version="1.0.1 (c497b03c, 2020-09-10)"
   sodipodi:docname="Artizyou_New_logo2021_CLEAR BACKGROUND.svg"
   inkscape:export-filename="/Users/sdrissi/image.png"
   inkscape:export-xdpi="89"
   inkscape:export-ydpi="89">
  <defs
     id="defs2108" />
  <sodipodi:namedview
     id="base"
     pagecolor="#ffffff"
     bordercolor="#666666"
     borderopacity="1.0"
     inkscape:pageopacity="0.0"
     inkscape:pageshadow="2"
     inkscape:zoom="0.92258167"
     inkscape:cx="270.76733"
     inkscape:cy="272.98848"
     inkscape:document-units="mm"
     inkscape:current-layer="layer1"
     inkscape:document-rotation="0"
     showgrid="false"
     width="296mm"
     inkscape:window-width="1782"
     inkscape:window-height="936"
     inkscape:window-x="1493"
     inkscape:window-y="62"
     inkscape:window-maximized="0" />
  <metadata
     id="metadata2111">
    <rdf:RDF>
      <cc:Work
         rdf:about="">
        <dc:format>image/svg+xml</dc:format>
        <dc:type
           rdf:resource="http://purl.org/dc/dcmitype/StillImage" />
        <dc:title></dc:title>
      </cc:Work>
    </rdf:RDF>
  </metadata>
  <g
     inkscape:label="Calque 1"
     inkscape:groupmode="layer"
     id="layer1">
    <g
       id="g2832"
       transform="matrix(0.49296203,0,0,-0.49296203,-35.933353,233.28659)">
      <g
         id="g1131"
         transform="translate(250.6078,434.5729)">
        <path
           d="m 0,0 -8.432,-14.071 -40.416,0.009 22.255,30.816 h -15.385 l 8.532,11.435 H 1.893 L -16.719,0 Z M 5.556,30.137 -34.167,29.624 -44.819,15.32 h 15.44 L -51.686,-15.533 -7.078,-16.019 3.077,1.452 h -16.555 z"
           style="fill:#ed9b6e;fill-opacity:1;fill-rule:nonzero;stroke:none"
           id="path1133" />
      </g>
      <g
         id="g1135"
         transform="translate(217.162,462.7621)">
        <path
           d="M 0,0 0.735,-1.435 H 34.392 L 35.339,0 Z"
           style="fill:#de5f47;fill-opacity:1;fill-rule:nonzero;stroke:none"
           id="path1137" />
      </g>
      <g
         id="g1139"
         transform="translate(217.162,462.7621)">
        <path
           d="m 0,0 -8.532,-11.435 h 1.789 l 7.478,10 z"
           style="fill:#de5f47;fill-opacity:1;fill-rule:nonzero;stroke:none"
           id="path1141" />
      </g>
      <g
         id="g1143"
         transform="translate(224.0145,451.3271)">
        <path
           d="m 0,0 0.796,-1.356 -21.281,-29.461 h -1.77 z"
           style="fill:#de5f47;fill-opacity:1;fill-rule:nonzero;stroke:none"
           id="path1145" />
      </g>
      <g
         id="g1147"
         transform="translate(233.889,434.5729)">
        <path
           d="M 0,0 0.834,-1.435 H 15.859 L 16.719,0 Z"
           style="fill:#de5f47;fill-opacity:1;fill-rule:nonzero;stroke:none"
           id="path1149" />
      </g>
      <g
         id="g1151"
         transform="translate(256.164,464.7095)">
        <path
           d="M 0,0 C 0.144,-0.242 -4.45,-28.685 -4.45,-28.685 H -19.034 Z"
           style="fill:#a0544e;fill-opacity:1;fill-rule:nonzero;stroke:none"
           id="path1153" />
      </g>
      <g
         id="g1155"
         transform="translate(253.6853,436.025)">
        <path
           d="m 0,0 -10.155,-17.471 3.58,-6.436 z"
           style="fill:#dd9560;fill-opacity:1;fill-rule:nonzero;stroke:none"
           id="path1157" />
      </g>
      <g
         id="g1159"
         transform="translate(198.9221,419.0397)">
        <path
           d="m 0,0 44.608,-0.485 3.58,-6.437 z"
           style="fill:#a0544e;fill-opacity:1;fill-rule:nonzero;stroke:none"
           id="path1161" />
      </g>
      <g
         id="g1163"
         transform="translate(205.7891,449.8926)">
        <path
           d="M 0,0 H 15.44 L 8.936,-8.995 Z"
           style="fill:#dd9560;fill-opacity:1;fill-rule:nonzero;stroke:none"
           id="path1165" />
      </g>
      <g
         id="g1167"
         transform="translate(217.9071,461.3153)">
        <path
           d="m 0,0 33.646,0.012 -17.664,-26.754 0.834,-1.435 h 15.025 l -7.572,-12.637 -38.646,0.009 21.281,29.46 -0.797,1.357 H -7.488 Z"
           style="fill:#ffffff;fill-opacity:1;fill-rule:nonzero;stroke:none"
           id="path1169" />
      </g>
      <g
         id="g1171"
         transform="translate(243.4219,418.6171)">
        <path
           d="M 0,0 10.263,17.408 0.216,-0.126 Z"
           style="fill:#ffffff;fill-opacity:1;fill-rule:nonzero;stroke:none"
           id="path1173" />
      </g>
      <g
         id="g1175"
         transform="translate(243.5286,418.4293)">
        <path
           d="M 0,0 -44.607,0.61 0.003,0.25 Z"
           style="fill:#ffffff;fill-opacity:1;fill-rule:nonzero;stroke:none"
           id="path1177" />
      </g>
      <g
         id="g1179"
         transform="translate(243.6392,418.615)">
        <path
           d="m 0,0 3.471,-6.497 -3.689,6.375 z"
           style="fill:#ffffff;fill-opacity:1;fill-rule:nonzero;stroke:none"
           id="path1181" />
      </g>
      <g
         id="g1183"
         transform="translate(237.0261,436.0941)">
        <path
           d="M 0,0 19.138,28.615 0.208,-0.138 Z"
           style="fill:#ffffff;fill-opacity:1;fill-rule:nonzero;stroke:none"
           id="path1185" />
      </g>
      <g
         id="g1187"
         transform="translate(237.1302,436.15)">
        <path
           d="M 0,0 16.539,-0.125 0,-0.25 Z"
           style="fill:#ffffff;fill-opacity:1;fill-rule:nonzero;stroke:none"
           id="path1189" />
      </g>
      <g
         id="g1191"
         transform="translate(92.8705,433.4177)">
        <path
           d="M 0,0 H 10.659 L 5.451,11.777 Z m 23.165,-14.255 h -6.194 l -3.793,8.572 H -2.644 l -4,-8.572 H -12.93 L 5.633,25.661 Z"
           style="fill:#ffffff;fill-opacity:1;fill-rule:nonzero;stroke:none"
           id="path1193" />
      </g>
      <g
         id="g1195"
         transform="translate(124.8099,439.5477)">
        <path
           d="m 0,0 h 6.068 c 2.33,0 4.213,0.29 5.596,0.861 0.868,0.411 1.67,1.073 2.376,1.992 0.641,0.833 0.953,1.715 0.953,2.695 0,0.885 -0.265,1.711 -0.81,2.526 -0.572,0.859 -1.386,1.551 -2.489,2.117 -1.107,0.567 -2.423,0.855 -3.913,0.855 H 0 Z M 22.601,-20.385 H 15.149 L 0,-1.983 V -20.385 H -5.684 V 16.728 H 7.781 c 1.778,0 3.474,-0.287 5.038,-0.853 1.583,-0.574 2.991,-1.41 4.186,-2.486 1.165,-1.044 2.077,-2.255 2.707,-3.595 0.64,-1.367 0.965,-2.794 0.965,-4.246 0,-2.269 -0.692,-4.33 -2.056,-6.128 -1.318,-1.736 -2.911,-3.007 -4.734,-3.776 -1.184,-0.537 -2.407,-0.889 -3.596,-1.03 -0.017,-0.002 -0.034,-0.004 -0.052,-0.006 z"
           style="fill:#ffffff;fill-opacity:1;fill-rule:nonzero;stroke:none"
           id="path1197" />
      </g>
      <g
         id="g1199"
         transform="translate(167.411,419.1627)">
        <path
           d="m 0,0 h -5.735 v 31.378 h -13.403 v 5.735 H 13.351 V 31.378 H 0 Z"
           style="fill:#ffffff;fill-opacity:1;fill-rule:nonzero;stroke:none"
           id="path1201" />
      </g>
      <path
         d="m 191.255,419.163 h -5.682 v 37.113 h 5.682 z"
         style="fill:#ffffff;fill-opacity:1;fill-rule:nonzero;stroke:none"
         id="path1203" />
      <g
         id="g1205"
         transform="translate(286.9548,419.1627)">
        <path
           d="m 0,0 h -5.682 v 12.848 l -16.443,24.265 h 6.841 L -2.817,18.875 9.6,37.113 h 6.845 L 0,12.848 Z"
           style="fill:#ffffff;fill-opacity:1;fill-rule:nonzero;stroke:none"
           id="path1207" />
      </g>
      <g
         id="g1209"
         transform="translate(320.3503,450.9044)">
        <path
           d="m 0,0 c -2.35,0 -4.546,-0.595 -6.525,-1.766 -1.996,-1.183 -3.607,-2.802 -4.788,-4.812 -1.173,-1.997 -1.769,-4.22 -1.769,-6.607 0,-2.387 0.596,-4.61 1.769,-6.607 1.181,-2.012 2.793,-3.63 4.788,-4.812 3.956,-2.344 9.093,-2.345 13.049,0 1.991,1.179 3.591,2.795 4.757,4.804 1.16,1.999 1.748,4.224 1.748,6.615 0,2.39 -0.588,4.616 -1.748,6.616 -1.166,2.007 -2.766,3.622 -4.757,4.803 C 4.544,-0.595 2.35,0 0,0 m 0,-32.105 c -3.37,0 -6.539,0.855 -9.417,2.541 -2.874,1.681 -5.175,4.002 -6.839,6.896 -1.665,2.891 -2.51,6.082 -2.51,9.483 0,3.4 0.845,6.591 2.51,9.485 1.664,2.891 3.964,5.211 6.839,6.894 2.881,1.686 6.049,2.542 9.417,2.542 3.366,0 6.534,-0.856 9.416,-2.541 2.875,-1.685 5.176,-4.004 6.838,-6.896 1.665,-2.896 2.51,-6.087 2.51,-9.484 0,-3.398 -0.845,-6.589 -2.51,-9.483 -1.663,-2.894 -3.964,-5.214 -6.837,-6.896 C 6.537,-31.25 3.369,-32.105 0,-32.105"
           style="fill:#ffffff;fill-opacity:1;fill-rule:nonzero;stroke:none"
           id="path1211" />
      </g>
      <g
         id="g1213"
         transform="translate(357.8553,418.7992)">
        <path
           d="m 0,0 c -1.918,0 -3.792,0.386 -5.567,1.148 -1.774,0.76 -3.363,1.855 -4.724,3.256 -1.34,1.3 -2.405,2.892 -3.13,4.697 -0.719,1.782 -1.083,3.688 -1.083,5.663 v 22.712 h 5.682 V 14.764 c 0,-1.232 0.23,-2.418 0.681,-3.524 C -7.69,10.135 -7.053,9.167 -6.247,8.363 -5.401,7.517 -4.429,6.86 -3.354,6.41 -1.181,5.499 1.304,5.526 3.406,6.409 4.495,6.866 5.441,7.504 6.3,8.363 c 0.805,0.804 1.442,1.773 1.893,2.877 0.452,1.106 0.681,2.292 0.681,3.524 v 22.712 h 5.682 V 14.764 c 0,-1.973 -0.363,-3.879 -1.081,-5.663 C 12.747,7.295 11.683,5.703 10.309,4.369 8.983,3.005 7.406,1.91 5.653,1.151 3.892,0.387 1.989,0 0,0"
           style="fill:#ffffff;fill-opacity:1;fill-rule:nonzero;stroke:none"
           id="path1215" />
      </g>
    </g>
  </g>
</svg>
