<svg xmlns="http://www.w3.org/2000/svg" width="5" height="9" viewBox="0 0 5 9">
  <path fill="#F36F2B" fill-rule="evenodd" d="M167.530792,892 C167.571848,892 167.60997,892.007331 167.645161,892.021994 C167.680352,892.036657 167.71261,892.058651 167.741935,892.087977 C167.800587,892.146628 167.829912,892.218475 167.829912,892.303519 C167.829912,892.388563 167.800587,892.46041 167.741935,892.519062 L163.730205,896.530792 L167.68915,900.489736 C167.747801,900.548387 167.777126,900.618768 167.777126,900.70088 C167.777126,900.782992 167.747801,900.853372 167.68915,900.912023 C167.630498,900.970675 167.558651,901 167.473607,901 C167.388563,901 167.316716,900.970675 167.258065,900.912023 L163.087977,896.741935 C163.029325,896.683284 163,896.612904 163,896.530792 C163,896.44868 163.029325,896.378299 163.087977,896.319648 L167.319648,892.087977 C167.348974,892.058651 167.382698,892.036657 167.420821,892.021994 C167.458944,892.007331 167.495601,892 167.530792,892 Z" transform="translate(-163 -892)"/>
</svg>
