<svg xmlns="http://www.w3.org/2000/svg" width="18" height="18" viewBox="0 0 18 18">
  <path fill="#F36F2B" fill-rule="evenodd" d="M782.475616,293.842255 C782.475616,294.480065 782.498395,295.064716 782.543953,295.596224 C782.589511,296.127733 782.635068,296.575712 782.680626,296.940175 C782.726184,297.304638 782.832484,297.669096 782.99953,298.033559 C783.166575,298.398022 783.272875,298.663773 783.318433,298.830818 C783.363991,298.997864 783.523441,299.22565 783.796789,299.514183 C784.070136,299.802716 784.221993,299.969759 784.252365,300.015317 C784.282737,300.060875 784.487744,300.235511 784.867393,300.53923 C785.247043,300.84295 785.45205,301.009993 785.482422,301.040365 L767.988281,301.040365 C768.079397,300.949249 768.24644,300.812577 768.489415,300.630346 C768.732391,300.448114 768.891841,300.319035 768.967771,300.243106 L769.37779,299.833087 C769.575207,299.635669 769.711879,299.476219 769.787809,299.354731 C769.863739,299.233244 769.977632,299.058608 770.129491,298.830818 C770.281351,298.603029 770.387651,298.390428 770.448395,298.193011 C770.509139,297.995593 770.585067,297.737436 770.676183,297.418531 C770.767299,297.099626 770.828042,296.773132 770.858414,296.439041 C770.888786,296.10495 770.919157,295.717714 770.949529,295.277321 C770.979901,294.836928 770.995087,294.358577 770.995087,293.842255 C770.995087,290.167252 772.544032,288.071621 775.641968,287.555298 L775.641968,287.464183 C775.641968,287.190835 775.748268,286.955456 775.960871,286.758039 C776.173475,286.560621 776.431632,286.461914 776.735352,286.461914 C777.039071,286.461914 777.297228,286.560621 777.509832,286.758039 C777.722435,286.955456 777.828735,287.190835 777.828735,287.464183 L777.828735,287.555298 C780.926672,288.010877 782.475616,290.106508 782.475616,293.842255 Z M778.32987,303.409363 C777.874291,303.773826 777.34279,303.956055 776.735352,303.956055 C776.127913,303.956055 775.596412,303.766233 775.140834,303.386584 C774.685255,303.006935 774.427097,302.54377 774.366353,301.997075 L779.10435,301.997075 C779.043606,302.54377 778.785448,303.014528 778.32987,303.409363 Z" transform="translate(-768 -286)"/>
</svg>
