<svg xmlns="http://www.w3.org/2000/svg" width="14" height="14" viewBox="0 0 14 14">
  <path fill="#FFF" fill-rule="evenodd" d="M337.482974,12.7874142 C337.482974,13.2764211 337.500438,13.7246708 337.535367,14.1321766 C337.570296,14.5396824 337.605225,14.8831465 337.640154,15.162579 C337.675083,15.4420116 337.756583,15.72144 337.884656,16.0008725 C338.012729,16.2803051 338.094229,16.4840549 338.129158,16.6121282 C338.164087,16.7402015 338.286337,16.9148442 338.495912,17.1360616 C338.705486,17.3572791 338.821915,17.4853504 338.845201,17.5202795 C338.868487,17.5552086 339.025665,17.6891013 339.316741,17.9219618 C339.607816,18.1548223 339.764995,18.2828936 339.788281,18.3061796 L326.375585,18.3061796 C326.445443,18.2363215 326.573514,18.1315359 326.759803,17.9918196 C326.946091,17.8521033 327.068341,17.7531391 327.126556,17.694924 L327.440916,17.3805639 C327.592276,17.2292046 327.697061,17.1069547 327.755276,17.0138105 C327.813491,16.9206663 327.900813,16.7867736 328.017243,16.6121282 C328.133673,16.4374829 328.215173,16.274483 328.261745,16.1231237 C328.308317,15.9717644 328.366532,15.7738359 328.43639,15.5293324 C328.506248,15.284829 328.552819,15.0345077 328.576105,14.7783612 C328.599391,14.5222147 328.622677,14.225322 328.645963,13.8876744 C328.669249,13.5500267 328.680892,13.1832769 328.680892,12.7874142 C328.680892,9.9698025 329.868463,8.36308938 332.243639,7.96722659 L332.243639,7.8973688 C332.243639,7.68779437 332.325139,7.50733022 332.488142,7.35597092 C332.651144,7.20461161 332.849072,7.1289331 333.081933,7.1289331 C333.314793,7.1289331 333.512722,7.20461161 333.675724,7.35597092 C333.838726,7.50733022 333.920226,7.68779437 333.920226,7.8973688 L333.920226,7.96722659 C336.295403,8.31651729 337.482974,9.92323041 337.482974,12.7874142 Z M327.877528,17.7473173 L338.286338,17.7473173 C337.354896,16.8158754 336.889183,15.1625909 336.889183,12.7874142 C336.889183,11.1806769 336.458397,10.0047492 335.596813,9.25959572 C334.944804,8.72401664 334.106519,8.45623112 333.081933,8.45623112 C332.057347,8.45623112 331.219062,8.72401664 330.567052,9.25959572 C329.705469,9.98146317 329.274683,11.1573909 329.274683,12.7874142 C329.274683,14.5338677 329.076755,15.814581 328.680892,16.6295927 C328.494604,17.0254554 328.226818,17.3980266 327.877528,17.7473173 Z M334.304444,20.1224822 C333.955154,20.4019148 333.547654,20.5416289 333.081933,20.5416289 C332.616212,20.5416289 332.208712,20.3960933 331.859422,20.1050177 C331.510131,19.8139422 331.312202,19.4588353 331.26563,19.0396864 L334.898235,19.0396864 C334.851663,19.4588353 334.653735,19.8197636 334.304444,20.1224822 Z" transform="translate(-326 -7)"/>
</svg>
