<?xml version="1.0" encoding="UTF-8"?>
<svg width="17px" height="18px" viewBox="0 0 17 18" version="1.1" xmlns="http://www.w3.org/2000/svg" xmlns:xlink="http://www.w3.org/1999/xlink">
    <!-- Generator: Sketch 47.1 (45422) - http://www.bohemiancoding.com/sketch -->
    <title>calendar - simple-line-icons</title>
    <desc>Created with Sketch.</desc>
    <defs></defs>
    <g id="Flow" stroke="none" stroke-width="1" fill="none" fill-rule="evenodd">
        <g id="27_paiement-copy" transform="translate(-46.000000, -585.000000)" fill="#f36f2b">
            <path d="M61.9375,586.65625 C62.2363296,586.65625 62.4881175,586.758625 62.6928711,586.963379 C62.8976247,587.168133 63,587.41992 63,587.71875 L63,601 C63,601.287762 62.8976247,601.536783 62.6928711,601.74707 C62.4881175,601.957358 62.2363296,602.0625 61.9375,602.0625 L47.0625,602.0625 C46.7636704,602.0625 46.5118825,601.957358 46.3071289,601.74707 C46.1023753,601.536783 46,601.287762 46,601 L46,587.71875 C46,587.41992 46.1023753,587.168133 46.3071289,586.963379 C46.5118825,586.758625 46.7636704,586.65625 47.0625,586.65625 L51.3125,586.65625 L51.3125,585.59375 C51.3125,585.449869 51.3650711,585.325359 51.4702148,585.220215 C51.5753586,585.115071 51.6998691,585.0625 51.84375,585.0625 C51.9876309,585.0625 52.1121414,585.115071 52.2172852,585.220215 C52.3224289,585.325359 52.375,585.449869 52.375,585.59375 L52.375,586.65625 L56.625,586.65625 L56.625,585.59375 C56.625,585.449869 56.6775711,585.325359 56.7827148,585.220215 C56.8878586,585.115071 57.0123691,585.0625 57.15625,585.0625 C57.3001309,585.0625 57.4246414,585.115071 57.5297852,585.220215 C57.6349289,585.325359 57.6875,585.449869 57.6875,585.59375 L57.6875,586.65625 L61.9375,586.65625 Z M61.9375,601 L61.9375,587.71875 L57.6875,587.71875 L57.6875,588.25 C57.6875,588.393881 57.6349289,588.518391 57.5297852,588.623535 C57.4246414,588.728679 57.3001309,588.78125 57.15625,588.78125 C57.0123691,588.78125 56.8878586,588.728679 56.7827148,588.623535 C56.6775711,588.518391 56.625,588.393881 56.625,588.25 L56.625,587.71875 L52.375,587.71875 L52.375,588.25 C52.375,588.393881 52.3224289,588.518391 52.2172852,588.623535 C52.1121414,588.728679 51.9876309,588.78125 51.84375,588.78125 C51.6998691,588.78125 51.5753586,588.728679 51.4702148,588.623535 C51.3650711,588.518391 51.3125,588.393881 51.3125,588.25 L51.3125,587.71875 L47.0625,587.71875 L47.0625,601 L61.9375,601 Z M58.21875,593.5625 C58.0748691,593.5625 57.9503586,593.509929 57.8452148,593.404785 C57.7400711,593.299641 57.6875,593.175131 57.6875,593.03125 L57.6875,591.96875 C57.6875,591.824869 57.7400711,591.700359 57.8452148,591.595215 C57.9503586,591.490071 58.0748691,591.4375 58.21875,591.4375 L59.28125,591.4375 C59.4251309,591.4375 59.5496414,591.490071 59.6547852,591.595215 C59.7599289,591.700359 59.8125,591.824869 59.8125,591.96875 L59.8125,593.03125 C59.8125,593.175131 59.7599289,593.299641 59.6547852,593.404785 C59.5496414,593.509929 59.4251309,593.5625 59.28125,593.5625 L58.21875,593.5625 Z M58.21875,597.8125 C58.0748691,597.8125 57.9503586,597.759929 57.8452148,597.654785 C57.7400711,597.549641 57.6875,597.425131 57.6875,597.28125 L57.6875,596.21875 C57.6875,596.074869 57.7400711,595.950359 57.8452148,595.845215 C57.9503586,595.740071 58.0748691,595.6875 58.21875,595.6875 L59.28125,595.6875 C59.4251309,595.6875 59.5496414,595.740071 59.6547852,595.845215 C59.7599289,595.950359 59.8125,596.074869 59.8125,596.21875 L59.8125,597.28125 C59.8125,597.425131 59.7599289,597.549641 59.6547852,597.654785 C59.5496414,597.759929 59.4251309,597.8125 59.28125,597.8125 L58.21875,597.8125 Z M55.03125,595.6875 C55.1751309,595.6875 55.2996414,595.740071 55.4047852,595.845215 C55.5099289,595.950359 55.5625,596.074869 55.5625,596.21875 L55.5625,597.28125 C55.5625,597.425131 55.5099289,597.549641 55.4047852,597.654785 C55.2996414,597.759929 55.1751309,597.8125 55.03125,597.8125 L53.96875,597.8125 C53.8248691,597.8125 53.7003586,597.759929 53.5952148,597.654785 C53.4900711,597.549641 53.4375,597.425131 53.4375,597.28125 L53.4375,596.21875 C53.4375,596.074869 53.4900711,595.950359 53.5952148,595.845215 C53.7003586,595.740071 53.8248691,595.6875 53.96875,595.6875 L55.03125,595.6875 Z M55.03125,591.4375 C55.1751309,591.4375 55.2996414,591.490071 55.4047852,591.595215 C55.5099289,591.700359 55.5625,591.824869 55.5625,591.96875 L55.5625,593.03125 C55.5625,593.175131 55.5099289,593.299641 55.4047852,593.404785 C55.2996414,593.509929 55.1751309,593.5625 55.03125,593.5625 L53.96875,593.5625 C53.8248691,593.5625 53.7003586,593.509929 53.5952148,593.404785 C53.4900711,593.299641 53.4375,593.175131 53.4375,593.03125 L53.4375,591.96875 C53.4375,591.824869 53.4900711,591.700359 53.5952148,591.595215 C53.7003586,591.490071 53.8248691,591.4375 53.96875,591.4375 L55.03125,591.4375 Z M50.78125,591.4375 C50.9251309,591.4375 51.0496414,591.490071 51.1547852,591.595215 C51.2599289,591.700359 51.3125,591.824869 51.3125,591.96875 L51.3125,593.03125 C51.3125,593.175131 51.2599289,593.299641 51.1547852,593.404785 C51.0496414,593.509929 50.9251309,593.5625 50.78125,593.5625 L49.71875,593.5625 C49.5748691,593.5625 49.4503586,593.509929 49.3452148,593.404785 C49.2400711,593.299641 49.1875,593.175131 49.1875,593.03125 L49.1875,591.96875 C49.1875,591.824869 49.2400711,591.700359 49.3452148,591.595215 C49.4503586,591.490071 49.5748691,591.4375 49.71875,591.4375 L50.78125,591.4375 Z M50.78125,595.6875 C50.9251309,595.6875 51.0496414,595.740071 51.1547852,595.845215 C51.2599289,595.950359 51.3125,596.074869 51.3125,596.21875 L51.3125,597.28125 C51.3125,597.425131 51.2599289,597.549641 51.1547852,597.654785 C51.0496414,597.759929 50.9251309,597.8125 50.78125,597.8125 L49.71875,597.8125 C49.5748691,597.8125 49.4503586,597.759929 49.3452148,597.654785 C49.2400711,597.549641 49.1875,597.425131 49.1875,597.28125 L49.1875,596.21875 C49.1875,596.074869 49.2400711,595.950359 49.3452148,595.845215 C49.4503586,595.740071 49.5748691,595.6875 49.71875,595.6875 L50.78125,595.6875 Z" id="calendar---simple-line-icons"></path>
        </g>
    </g>
</svg>