<svg xmlns="http://www.w3.org/2000/svg" width="18" height="14" viewBox="0 0 18 14">
  <path fill="#F36F2B" fill-rule="evenodd" d="M24.5941397,9.96771689 C24.5941397,10.2467351 24.4825324,10.5257533 24.2816393,10.7266464 L14.6834136,20.3248721 C14.4825205,20.5257652 14.2035023,20.6373725 13.9244841,20.6373725 C13.6454659,20.6373725 13.3664477,20.5257652 13.1655546,20.3248721 L7.60751228,14.7668298 C7.40661919,14.5659367 7.29501191,14.2869185 7.29501191,14.0079003 C7.29501191,13.7288821 7.40661919,13.4498639 7.60751228,13.2489708 L9.12537124,11.7311119 C9.32626433,11.5302188 9.60528252,11.4186115 9.88430071,11.4186115 C10.1633189,11.4186115 10.4423371,11.5302188 10.6432302,11.7311119 L13.9244841,15.0235265 L21.2459214,7.69092846 C21.4468145,7.49003537 21.7258327,7.37842809 22.0048509,7.37842809 C22.2838691,7.37842809 22.5628873,7.49003537 22.7637804,7.69092846 L24.2816393,9.20878742 C24.4825324,9.40968051 24.5941397,9.6886987 24.5941397,9.96771689 Z" transform="translate(-7 -7)"/>
</svg>
