<?xml version="1.0" encoding="UTF-8"?>
<svg width="20px" height="14px" viewBox="0 0 20 14" version="1.1" xmlns="http://www.w3.org/2000/svg" xmlns:xlink="http://www.w3.org/1999/xlink">
    <!-- Generator: Sketch 47.1 (45422) - http://www.bohemiancoding.com/sketch -->
    <title>credit-card - simple-line-icons</title>
    <desc>Created with Sketch.</desc>
    <defs></defs>
    <g id="Flow" stroke="none" stroke-width="1" fill="none" fill-rule="evenodd">
        <g id="27_paiement-copy" transform="translate(-44.000000, -509.000000)" fill="#f36f2b">
            <path d="M62.125,509.6875 C62.6458359,509.6875 63.0885398,509.86979 63.453125,510.234375 C63.8177102,510.59896 64,511.041664 64,511.5625 L64,520.9375 C64,521.458336 63.8177102,521.90104 63.453125,522.265625 C63.0885398,522.63021 62.6458359,522.8125 62.125,522.8125 L45.875,522.8125 C45.3541641,522.8125 44.9114602,522.63021 44.546875,522.265625 C44.1822898,521.90104 44,521.458336 44,520.9375 L44,511.5625 C44,511.041664 44.1822898,510.59896 44.546875,510.234375 C44.9114602,509.86979 45.3541641,509.6875 45.875,509.6875 L62.125,509.6875 Z M45.875,510.9375 C45.7057283,510.9375 45.5592454,510.999348 45.4355469,511.123047 C45.3118483,511.246745 45.25,511.393228 45.25,511.5625 L45.25,512.8125 L62.75,512.8125 L62.75,511.5625 C62.75,511.393228 62.6881517,511.246745 62.5644531,511.123047 C62.4407546,510.999348 62.2942717,510.9375 62.125,510.9375 L45.875,510.9375 Z M62.125,521.5625 C62.2942717,521.5625 62.4407546,521.500652 62.5644531,521.376953 C62.6881517,521.253255 62.75,521.106772 62.75,520.9375 L62.75,515.3125 L45.25,515.3125 L45.25,520.9375 C45.25,521.106772 45.3118483,521.253255 45.4355469,521.376953 C45.5592454,521.500652 45.7057283,521.5625 45.875,521.5625 L62.125,521.5625 Z" id="credit-card---simple-line-icons"></path>
        </g>
    </g>
</svg>