<svg xmlns="http://www.w3.org/2000/svg" width="114" height="113" viewBox="0 0 114 113">
  <g fill="none" fill-rule="evenodd" transform="translate(-.5 -.5)">
    <path fill="#D2D2D2" d="M80.0287779,21.2578978 C82.0277441,23.256864 83.7025536,27.2547964 83.7025536,30.1181804 L83.7025536,92.3562628 C83.7025536,95.2196468 81.3794307,97.5427697 78.5160467,97.5427697 L5.90495058,97.5427697 C3.04156658,97.5427697 0.718443713,95.2196468 0.718443713,92.3562628 L0.718443713,5.91448166 C0.718443713,3.05109766 3.04156658,0.727974791 5.90495058,0.727974791 L54.312348,0.727974791 C57.175732,0.727974791 61.1736644,2.4027843 63.1726306,4.40175049 L80.0287779,21.2578978 Z M56.0411836,8.07552619 L56.0411836,28.3893448 L76.3550022,28.3893448 C76.0308455,27.4709008 75.5446105,26.5524569 75.1664277,26.1742741 L58.2562543,9.26410068 C57.8780715,8.88591788 56.9596276,8.39968287 56.0411836,8.07552619 Z M76.7872111,90.6274272 L76.7872111,35.3046872 L54.312348,35.3046872 C51.448964,35.3046872 49.1258411,32.9815644 49.1258411,30.1181804 L49.1258411,7.64331728 L7.6337862,7.64331728 L7.6337862,90.6274272 L76.7872111,90.6274272 Z"/>
    <path fill="#FFF" stroke="#D2D2D2" stroke-width="6.3" d="M105.632572,80.005334 C106.380659,80.714048 106.577524,81.816492 106.183794,82.7220709 C105.790064,83.6670229 104.884485,84.2969909 103.860787,84.2969909 L88.8203018,84.2969909 L96.7342745,103.038538 C97.2854965,104.337847 96.6555285,105.794648 95.3955925,106.34587 L88.4265718,109.298845 C87.1272629,109.850067 85.6704619,109.220099 85.11924,107.960163 L77.5989973,90.1635676 L65.3146218,102.447943 C64.8421458,102.920419 64.2121779,103.19603 63.5428369,103.19603 C63.2278529,103.19603 62.8734959,103.117284 62.5978849,102.999165 C61.652933,102.605435 61.022965,101.699856 61.022965,100.676158 L61.022965,41.4591687 C61.022965,40.4354707 61.652933,39.5298917 62.5978849,39.1361618 C62.8734959,39.0180428 63.2278529,38.9392968 63.5428369,38.9392968 C64.2121779,38.9392968 64.8421458,39.1755348 65.3146218,39.6873837 L105.632572,80.005334 Z" transform="rotate(-32 83.703 74.22)"/>
  </g>
</svg>
