<svg xmlns="http://www.w3.org/2000/svg" width="21" height="21" viewBox="0 0 21 21">
  <path fill="#F36F2B" fill-rule="evenodd" d="M907.949219,861.25 C909.329434,861.25 910.628249,861.510414 911.845703,862.03125 C913.063157,862.552086 914.124344,863.264969 915.029297,864.169922 C915.934249,865.074874 916.647133,866.136062 917.167969,867.353516 C917.688805,868.57097 917.949219,869.869785 917.949219,871.25 C917.949219,872.630215 917.688805,873.92903 917.167969,875.146484 C916.647133,876.363938 915.934249,877.425126 915.029297,878.330078 C914.124344,879.235031 913.063157,879.947914 911.845703,880.46875 C910.628249,880.989586 909.329434,881.25 907.949219,881.25 C906.569004,881.25 905.270188,880.989586 904.052734,880.46875 C902.83528,879.947914 901.774093,879.235031 900.869141,878.330078 C899.964188,877.425126 899.251305,876.363938 898.730469,875.146484 C898.209633,873.92903 897.949219,872.630215 897.949219,871.25 C897.949219,869.869785 898.209633,868.57097 898.730469,867.353516 C899.251305,866.136062 899.964188,865.074874 900.869141,864.169922 C901.774093,863.264969 902.83528,862.552086 904.052734,862.03125 C905.270188,861.510414 906.569004,861.25 907.949219,861.25 Z M907.949219,880.019531 C909.160162,880.019531 910.296219,879.788414 911.357422,879.326172 C912.418625,878.86393 913.343095,878.235681 914.130859,877.441406 C914.918624,876.647131 915.543617,875.719406 916.005859,874.658203 C916.468101,873.597 916.699219,872.460944 916.699219,871.25 C916.699219,870.039056 916.468101,868.903 916.005859,867.841797 C915.543617,866.780594 914.918624,865.856124 914.130859,865.068359 C913.343095,864.280595 912.418625,863.655601 911.357422,863.193359 C910.296219,862.731117 909.160162,862.5 907.949219,862.5 C906.738275,862.5 905.602219,862.731117 904.541016,863.193359 C903.479812,863.655601 902.555342,864.280595 901.767578,865.068359 C900.979814,865.856124 900.35482,866.780594 899.892578,867.841797 C899.430336,868.903 899.199219,870.039056 899.199219,871.25 C899.199219,872.460944 899.430336,873.597 899.892578,874.658203 C900.35482,875.719406 900.979814,876.647131 901.767578,877.441406 C902.555342,878.235681 903.479812,878.86393 904.541016,879.326172 C905.602219,879.788414 906.738275,880.019531 907.949219,880.019531 Z M907.03125,876.875 L907.03125,875.292969 L908.59375,875.292969 L908.59375,876.875 L907.03125,876.875 Z M907.929688,865.625 C908.437503,865.625 908.883462,865.686848 909.267578,865.810547 C909.651695,865.934245 909.986978,866.126301 910.273438,866.386719 C910.546876,866.634116 910.751952,866.936847 910.888672,867.294922 C911.025391,867.652997 911.09375,868.059894 911.09375,868.515625 C911.09375,868.854168 911.048178,869.173176 910.957031,869.472656 C910.865885,869.772137 910.735678,870.058592 910.566406,870.332031 C910.384114,870.592449 910.172527,870.862629 909.931641,871.142578 C909.690754,871.422527 909.427085,871.705728 909.140625,871.992188 C908.997395,872.135417 908.883464,872.26888 908.798828,872.392578 C908.714192,872.516277 908.658854,872.630208 908.632813,872.734375 C908.606771,872.838542 908.58724,872.978515 908.574219,873.154297 C908.561198,873.330079 908.554688,873.528645 908.554688,873.75 L907.050781,873.75 C907.050781,873.385415 907.067057,873.076173 907.099609,872.822266 C907.132162,872.568358 907.180989,872.369792 907.246094,872.226562 C907.298177,872.083333 907.405598,871.917319 907.568359,871.728516 C907.731121,871.539713 907.942707,871.328126 908.203125,871.09375 C908.450522,870.794269 908.665364,870.5306 908.847656,870.302734 C909.029949,870.074869 909.173177,869.882813 909.277344,869.726562 C909.381511,869.557291 909.459635,869.378256 909.511719,869.189453 C909.563802,869.00065 909.589844,868.789064 909.589844,868.554688 C909.589844,868.29427 909.554037,868.059897 909.482422,867.851562 C909.410807,867.643228 909.303386,867.467449 909.160156,867.324219 C909.016926,867.180989 908.844402,867.070313 908.642578,866.992188 C908.440754,866.914062 908.203126,866.875 907.929688,866.875 C907.695311,866.875 907.48047,866.907552 907.285156,866.972656 C907.089843,867.037761 906.914063,867.135416 906.757813,867.265625 C906.588541,867.382813 906.464844,867.591144 906.386719,867.890625 C906.308593,868.190106 906.269531,868.46354 906.269531,868.710938 L904.824219,868.710938 L904.804688,868.652344 C904.791667,868.248696 904.85677,867.825523 905,867.382812 C905.14323,866.940102 905.364582,866.595053 905.664063,866.347656 C905.963543,866.100259 906.302081,865.917969 906.679688,865.800781 C907.057294,865.683593 907.473956,865.625 907.929688,865.625 Z" transform="translate(-897 -861)"/>
</svg>
