<svg xmlns="http://www.w3.org/2000/svg" width="10" height="20" viewBox="0 0 10 20">
  <path fill="#d2d2d2" fill-rule="evenodd" d="M450.76,2249 L452,2249 L452,2258.56 C452,2259.4 451.796669,2260.17333 451.39,2260.88 C450.983331,2261.58667 450.430003,2262.14666 449.73,2262.56 C449.029996,2262.97334 448.266671,2263.18 447.44,2263.18 C446.613329,2263.18 445.84667,2262.97334 445.14,2262.56 C444.43333,2262.14666 443.870002,2261.58667 443.45,2260.88 C443.029998,2260.17333 442.82,2259.4 442.82,2258.56 L442.82,2248.18 C442.82,2247.58 442.973332,2247.02334 443.28,2246.51 C443.586668,2245.99666 443.996664,2245.58667 444.51,2245.28 C445.023336,2244.97333 445.579997,2244.82 446.18,2244.82 C446.780003,2244.82 447.333331,2244.97 447.84,2245.27 C448.346669,2245.57 448.749999,2245.98 449.05,2246.5 C449.350002,2247.02 449.5,2247.58 449.5,2248.18 L449.5,2256.92 C449.5,2257.29334 449.406668,2257.64 449.22,2257.96 C449.033332,2258.28 448.783335,2258.53333 448.47,2258.72 C448.156665,2258.90667 447.813335,2259 447.44,2259 C447.066665,2259 446.716668,2258.90667 446.39,2258.72 C446.063332,2258.53333 445.803334,2258.28 445.61,2257.96 C445.416666,2257.64 445.32,2257.29334 445.32,2256.92 L445.32,2249 L446.58,2249 L446.58,2256.92 C446.58,2257.16 446.663333,2257.35667 446.83,2257.51 C446.996668,2257.66333 447.199999,2257.74 447.44,2257.74 C447.680001,2257.74 447.876666,2257.66333 448.03,2257.51 C448.183334,2257.35667 448.26,2257.16 448.26,2256.92 L448.26,2248.18 C448.26,2247.80666 448.166668,2247.45667 447.98,2247.13 C447.793332,2246.80333 447.540002,2246.54333 447.22,2246.35 C446.899998,2246.15667 446.553335,2246.06 446.18,2246.06 C445.806665,2246.06 445.460002,2246.15667 445.14,2246.35 C444.819998,2246.54333 444.563334,2246.80333 444.37,2247.13 C444.176666,2247.45667 444.08,2247.80666 444.08,2248.18 L444.08,2258.56 C444.08,2259.16 444.233332,2259.72 444.54,2260.24 C444.846668,2260.76 445.256664,2261.17333 445.77,2261.48 C446.283336,2261.78667 446.839997,2261.94 447.44,2261.94 C448.040003,2261.94 448.593331,2261.78667 449.1,2261.48 C449.606669,2261.17333 450.009998,2260.76 450.31,2260.24 C450.610002,2259.72 450.76,2259.16 450.76,2258.56 L450.76,2249 Z" transform="translate(-442 -2244)"/>
</svg>
