<svg xmlns="http://www.w3.org/2000/svg" width="72" height="61" viewBox="0 0 72 61">
  <path fill-opacity=".76" fill-rule="evenodd" d="M518.5,596.125 C519.718756,596.125 520.773433,596.570308 521.664062,597.460938 C522.554692,598.351567 523,599.406244 523,600.625 L523,652.375 C523,653.593756 522.554692,654.648433 521.664062,655.539062 C520.773433,656.429692 519.718756,656.875 518.5,656.875 L455.5,656.875 C454.281244,656.875 453.226567,656.429692 452.335938,655.539062 C451.445308,654.648433 451,653.593756 451,652.375 L451,600.625 C451,599.406244 451.445308,598.351567 452.335938,597.460938 C453.226567,596.570308 454.281244,596.125 455.5,596.125 L518.5,596.125 Z M518.5,652.375 L518.5,648.226562 L518.394531,648.121094 C518.371094,648.097656 518.335938,648.085938 518.289062,648.085938 L503.523438,632.828125 L495.296875,640.28125 C494.781247,640.656252 494.230472,640.855469 493.644531,640.878906 C493.058591,640.902344 492.578127,640.67969 492.203125,640.210938 L473.570312,621.648438 L455.5,639.15625 L455.5,652.375 L518.5,652.375 Z M518.5,641.828125 L518.5,600.625 L455.5,600.625 L455.5,632.828125 L471.953125,616.867188 C472.187501,616.632811 472.445311,616.46875 472.726562,616.375 C473.007814,616.28125 473.312498,616.234375 473.640625,616.234375 C473.921876,616.234375 474.203124,616.304687 474.484375,616.445312 C474.765626,616.585938 475.023436,616.796874 475.257812,617.078125 L493.820312,635.5 L502.328125,628.117188 C502.796877,627.742186 503.300779,627.578125 503.839844,627.625 C504.378909,627.671875 504.859373,627.882811 505.28125,628.257812 L518.5,641.828125 Z M502.75,618.625 C501.531244,618.625 500.476567,618.191411 499.585938,617.324219 C498.695308,616.457027 498.25,615.390631 498.25,614.125 C498.25,612.906244 498.695308,611.851567 499.585938,610.960938 C500.476567,610.070308 501.531244,609.625 502.75,609.625 C503.968756,609.625 505.023433,610.070308 505.914062,610.960938 C506.804692,611.851567 507.25,612.906244 507.25,614.125 C507.25,615.390631 506.804692,616.457027 505.914062,617.324219 C505.023433,618.191411 503.968756,618.625 502.75,618.625 Z" transform="translate(-451 -596)"/>
</svg>
