<svg xmlns="http://www.w3.org/2000/svg" width="14" height="16" viewBox="0 0 14 16">
  <path fill="#F36F2B" fill-rule="evenodd" d="M14.4503035,31.2507692 C14.9794568,31.2507692 15.4312271,31.4379669 15.805628,31.8123678 C16.180029,32.1867687 16.3672266,32.638539 16.3672266,33.1676923 L16.3672266,38.9184616 C16.3672266,39.4476149 16.180029,39.8993852 15.805628,40.2737861 C15.4312271,40.648187 14.9794568,40.8353847 14.4503035,40.8353847 L5.82414965,40.8353847 C5.29499636,40.8353847 4.84322603,40.648187 4.46882512,40.2737861 C4.09442421,39.8993852 3.90722656,39.4476149 3.90722656,38.9184616 L3.90722656,33.1676923 C3.90722656,32.638539 4.09442421,32.1867687 4.46882512,31.8123678 C4.84322603,31.4379669 5.29499636,31.2507692 5.82414965,31.2507692 L6.30338042,31.2507692 L6.30338042,29.4237019 C6.30338042,28.8845646 6.39573126,28.375387 6.58043571,27.8961539 C6.76514016,27.4169207 7.02472089,27.0000939 7.35918571,26.6456611 C7.69365052,26.2912282 8.09550147,26.0116797 8.56475062,25.8070072 C9.03399976,25.6023347 9.55316123,25.5 10.1222506,25.5 C10.681356,25.5 11.1980215,25.6023347 11.6722626,25.8070072 C12.1465038,26.0116797 12.5533467,26.2887322 12.8928035,26.6381731 C13.2322603,26.9876139 13.496833,27.4019447 13.6865295,27.8811779 C13.8762259,28.3604111 13.9710727,28.8745806 13.9710727,29.4237019 L13.9710727,31.2507692 L14.4503035,31.2507692 Z M7.26184196,29.4237019 L7.26184196,31.2507692 L13.0126112,31.2507692 L13.0126112,29.4237019 C13.0126112,28.5950279 12.7455426,27.8936607 12.2113973,27.3195793 C11.677252,26.7454979 10.9808767,26.4584615 10.1222506,26.4584615 C9.25364051,26.4584615 8.55976122,26.7479939 8.04059196,27.3270673 C7.5214227,27.9061407 7.26184196,28.6050119 7.26184196,29.4237019 Z M15.4087651,38.9184616 L15.4087651,33.1676923 C15.4087651,32.9081077 15.3139183,32.6834705 15.1242218,32.4937741 C14.9345253,32.3040776 14.7098881,32.2092308 14.4503035,32.2092308 L5.82414965,32.2092308 C5.56456501,32.2092308 5.33992784,32.3040776 5.15023137,32.4937741 C4.96053491,32.6834705 4.8656881,32.9081077 4.8656881,33.1676923 L4.8656881,38.9184616 C4.8656881,39.1780462 4.96053491,39.4026834 5.15023137,39.5923799 C5.33992784,39.7820763 5.56456501,39.8769231 5.82414965,39.8769231 L14.4503035,39.8769231 C14.7098881,39.8769231 14.9345253,39.7820763 15.1242218,39.5923799 C15.3139183,39.4026834 15.4087651,39.1780462 15.4087651,38.9184616 Z M10.1372266,34.1261539 C10.4067952,34.1261539 10.6339284,34.2185047 10.8186328,34.4032092 C11.0033373,34.5879136 11.0956881,34.8150468 11.0956881,35.0846154 C11.0956881,35.2643279 11.0507607,35.4265658 10.9609045,35.5713342 C10.8710482,35.7161025 10.7562337,35.8284211 10.6164574,35.9082933 L10.6164574,37.4807693 C10.6164574,37.6105616 10.5690339,37.7228802 10.4741857,37.8177284 C10.3793375,37.9125766 10.2670189,37.96 10.1372266,37.96 C10.0074343,37.96 9.89511568,37.9125766 9.80026745,37.8177284 C9.70541921,37.7228802 9.65799581,37.6105616 9.65799581,37.4807693 L9.65799581,35.9082933 C9.51821947,35.8284211 9.40340491,35.7161025 9.31354869,35.5713342 C9.22369248,35.4265658 9.17876504,35.2643279 9.17876504,35.0846154 C9.17876504,34.8150468 9.27111588,34.5879136 9.45582033,34.4032092 C9.64052478,34.2185047 9.86765793,34.1261539 10.1372266,34.1261539 Z" transform="translate(-3 -25)"/>
</svg>
