<?xml version="1.0" encoding="UTF-8"?>
<svg width="16px" height="19px" viewBox="0 0 16 19" version="1.1" xmlns="http://www.w3.org/2000/svg" xmlns:xlink="http://www.w3.org/1999/xlink">
    <!-- Generator: Sketch 47.1 (45422) - http://www.bohemiancoding.com/sketch -->
    <title>lock - simple-line-icons</title>
    <desc>Created with Sketch.</desc>
    <defs></defs>
    <g id="Flow" stroke="none" stroke-width="1" fill="none" fill-rule="evenodd">
        <g id="27_paiement-copy" transform="translate(-189.000000, -584.000000)" fill="#f36f2b">
            <path d="M202.0625,590.875 C202.683597,590.875 203.213865,591.094724 203.65332,591.53418 C204.092776,591.973635 204.3125,592.503903 204.3125,593.125 L204.3125,599.875 C204.3125,600.496097 204.092776,601.026365 203.65332,601.46582 C203.213865,601.905276 202.683597,602.125 202.0625,602.125 L191.9375,602.125 C191.316403,602.125 190.786135,601.905276 190.34668,601.46582 C189.907224,601.026365 189.6875,600.496097 189.6875,599.875 L189.6875,593.125 C189.6875,592.503903 189.907224,591.973635 190.34668,591.53418 C190.786135,591.094724 191.316403,590.875 191.9375,590.875 L192.5,590.875 L192.5,588.730469 C192.5,588.097653 192.608397,587.500003 192.825195,586.9375 C193.041993,586.374997 193.346678,585.885744 193.739258,585.469727 C194.131838,585.053709 194.603513,584.725587 195.154297,584.485352 C195.705081,584.245116 196.31445,584.125 196.982422,584.125 C197.638675,584.125 198.245114,584.245116 198.801758,584.485352 C199.358401,584.725587 199.835936,585.050779 200.234375,585.460938 C200.632814,585.871096 200.943358,586.357419 201.166016,586.919922 C201.388673,587.482425 201.5,588.085934 201.5,588.730469 L201.5,590.875 L202.0625,590.875 Z M193.625,588.730469 L193.625,590.875 L200.375,590.875 L200.375,588.730469 C200.375,587.757808 200.061527,586.934574 199.43457,586.260742 C198.807614,585.586911 197.990239,585.25 196.982422,585.25 C195.962886,585.25 195.148441,585.58984 194.539062,586.269531 C193.929684,586.949222 193.625,587.769526 193.625,588.730469 Z M203.1875,599.875 L203.1875,593.125 C203.1875,592.820311 203.076173,592.556642 202.853516,592.333984 C202.630858,592.111327 202.367189,592 202.0625,592 L191.9375,592 C191.632811,592 191.369142,592.111327 191.146484,592.333984 C190.923827,592.556642 190.8125,592.820311 190.8125,593.125 L190.8125,599.875 C190.8125,600.179689 190.923827,600.443358 191.146484,600.666016 C191.369142,600.888673 191.632811,601 191.9375,601 L202.0625,601 C202.367189,601 202.630858,600.888673 202.853516,600.666016 C203.076173,600.443358 203.1875,600.179689 203.1875,599.875 Z M197,594.25 C197.316408,594.25 197.583007,594.358397 197.799805,594.575195 C198.016603,594.791993 198.125,595.058592 198.125,595.375 C198.125,595.585939 198.072266,595.776366 197.966797,595.946289 C197.861328,596.116212 197.726563,596.248046 197.5625,596.341797 L197.5625,598.1875 C197.5625,598.339845 197.506836,598.471679 197.395508,598.583008 C197.284179,598.694336 197.152345,598.75 197,598.75 C196.847655,598.75 196.715821,598.694336 196.604492,598.583008 C196.493164,598.471679 196.4375,598.339845 196.4375,598.1875 L196.4375,596.341797 C196.273437,596.248046 196.138672,596.116212 196.033203,595.946289 C195.927734,595.776366 195.875,595.585939 195.875,595.375 C195.875,595.058592 195.983397,594.791993 196.200195,594.575195 C196.416993,594.358397 196.683592,594.25 197,594.25 Z" id="lock---simple-line-icons"></path>
        </g>
    </g>
</svg>