<svg xmlns="http://www.w3.org/2000/svg" width="14" height="13" viewBox="0 0 14 13">
  <path fill="#A4A4A4" fill-rule="evenodd" d="M10.9380078,16.7750962 C11.83657,16.7750962 12.6752155,16.5454671 13.4539694,16.086202 C14.2127552,15.6469049 14.8117877,15.0478724 15.2510848,14.2890866 C15.7103499,13.5103327 15.939979,12.6716872 15.939979,11.773125 C15.939979,10.8745628 15.7103499,10.0359174 15.2510848,9.25716347 C14.8117877,8.49837763 14.2127552,7.89934515 13.4539694,7.46004808 C12.6752155,7.00078296 11.83657,6.77115385 10.9380078,6.77115385 C10.0394456,6.77115385 9.20080018,7.00078296 8.42204629,7.46004808 C7.66326044,7.89934515 7.06422796,8.49837763 6.6249309,9.25716347 C6.16566578,10.0359174 5.93603666,10.8745628 5.93603666,11.773125 C5.93603666,12.6716872 6.16566578,13.5103327 6.6249309,14.2890866 C7.06422796,15.0478724 7.66326044,15.6469049 8.42204629,16.086202 C9.20080018,16.5454671 10.0394456,16.7750962 10.9380078,16.7750962 Z M10.9380078,5.543125 C12.0761866,5.543125 13.1294854,5.82766542 14.0979357,6.39675481 C15.036434,6.93589212 15.7752407,7.67469884 16.314378,8.61319712 C16.8834674,9.58164748 17.1680079,10.6349462 17.1680079,11.773125 C17.1680079,12.9113038 16.8834674,13.9646026 16.314378,14.9330529 C15.7752407,15.8715512 15.036434,16.6103579 14.0979357,17.1494952 C13.1294854,17.7185846 12.0761866,18.003125 10.9380078,18.003125 C9.79982906,18.003125 8.7465303,17.7185846 7.77807994,17.1494952 C6.83958165,16.6003739 6.10077494,15.8565752 5.56163762,14.918077 C4.99254824,13.9496266 4.70800781,12.9013198 4.70800781,11.773125 C4.70800781,10.6449303 4.99254824,9.59662344 5.56163762,8.62817309 C6.11075896,7.6896748 6.85455761,6.94587615 7.7930559,6.39675481 C8.76150626,5.82766542 9.80981308,5.543125 10.9380078,5.543125 Z M11.6970149,10.4319934 C11.6586679,10.3660304 11.6203213,10.313876 11.5819742,10.2755289 C11.492118,10.1956567 11.3822953,10.1282655 11.252503,10.0733534 C11.1227107,10.0184412 10.9879284,9.99098559 10.8481521,9.99098559 C10.428823,9.99098559 10.1243149,10.1607115 9.93461841,10.5001683 C9.76488999,10.789705 9.68002706,11.184068 9.68002706,11.6832692 L9.68002706,11.8629808 C9.68002706,12.362182 9.76488999,12.756545 9.93461841,13.0460818 C10.1243149,13.3855386 10.428823,13.5552644 10.8481521,13.5552644 C11.1376888,13.5552644 11.3822937,13.4753935 11.5819742,13.3156491 C11.7816547,13.1559047 11.8814934,12.9412514 11.8814934,12.6716827 L12.9897146,12.6716827 C12.9897146,13.1608999 12.7750613,13.5902065 12.3457482,13.9596154 C12.1460677,14.1393278 11.9364064,14.2691182 11.7167578,14.3489904 C11.4571732,14.4488307 11.1676408,14.49875 10.8481521,14.49875 C10.0693982,14.49875 9.47036569,14.2541451 9.05103667,13.7649279 C8.6516757,13.3056628 8.45199821,12.6716868 8.45199821,11.8629808 L8.45199821,11.6832692 C8.45199821,11.3038763 8.50191758,10.9519447 8.60175782,10.627464 C8.70159807,10.3029832 8.84636425,10.0309226 9.03606071,9.81127405 C9.24572522,9.57165747 9.49532208,9.38695579 9.78485879,9.25716347 C10.1143316,9.09741908 10.4687591,9.01754809 10.8481521,9.01754809 C11.1576568,9.01754809 11.4471892,9.06746746 11.7167578,9.1673077 C11.9863265,9.26714795 12.2059717,9.40193025 12.3757001,9.57165867 C12.7850451,10.0009717 12.9897146,10.4801977 12.9897146,11.009351 L11.8814934,11.009351 C11.8814934,10.8795587 11.8515418,10.7547602 11.7916376,10.6349519 C11.7349595,10.5145109 11.7034187,10.4468583 11.6970149,10.4319934 Z" transform="translate(-4 -5)"/>
</svg>
