<svg xmlns="http://www.w3.org/2000/svg" width="63" height="58" viewBox="0 0 63 58">
  <path fill="none" stroke="#443207" stroke-width="5" d="M18.75,32.4878111 C22.1666837,32.4878111 25.0833213,33.6961323 27.5,36.1128111 C29.9166787,38.5294898 30.7500038,41.5711261 30,45.2378111 C28.8333275,50.5711711 25.083365,53.7794723 18.75,54.8628111 C16.3333213,55.2794798 13.5208494,55.133648 10.3125,54.4253111 C7.10415062,53.7169742 5.000005,52.4044873 4,50.4878111 C6.8333475,49.4044723 8.25,47.3628261 8.25,44.3628111 C8.25,41.1127948 9.20832375,38.3211561 11.125,35.9878111 C13.0416763,33.6544661 15.5833175,32.4878111 18.75,32.4878111 Z M52.875,3.9878111 C54.7083425,2.4878036 56.5833237,2.69613485 58.5,4.6128111 C60.4166763,6.52948735 60.6250075,8.4044686 59.125,10.2378111 L39.875,32.1128111 C40.1250012,33.2794836 40.0000025,34.2378073 39.5,34.9878111 L33.25,42.2378111 C32.9999988,42.4878123 32.7500012,42.4878123 32.5,42.2378111 C32.4166663,42.1544773 32.375,42.0294786 32.375,41.8628111 L32.375,41.7378111 C32.4583337,38.5711286 31.4166775,35.9461548 29.25,33.8628111 C27.0833225,31.7794673 24.4166825,30.6544786 21.25,30.4878111 L21,30.4878111 C20.8333325,30.4878111 20.75,30.4461448 20.75,30.3628111 C20.4999988,30.1128098 20.4999988,29.8628123 20.75,29.6128111 L28.125,23.4878111 C28.79167,23.0711423 29.7499938,22.9878098 31,23.2378111 L52.875,3.9878111 Z"/>
</svg>
