<svg xmlns="http://www.w3.org/2000/svg" width="14" height="14" viewBox="0 0 14 14">
  <path fill="#F36F2B" fill-rule="evenodd" d="M748.259875,931.25923 L748.259875,929.273434 L748.911216,929.273434 L748.911216,931.25923 L748.259875,931.25923 Z M741.619371,927.637138 L741.619371,936.914778 L750.897012,936.914778 L750.897012,938.217461 L741.619371,938.217461 C741.259279,938.217461 740.952145,938.090371 740.697962,937.836188 C740.443779,937.582005 740.316689,937.274871 740.316689,936.914778 L740.316689,927.637138 L741.619371,927.637138 Z M744.939623,929.956548 L744.939623,929.273434 L745.590964,929.273434 L745.590964,929.956548 L744.939623,929.956548 Z M752.549195,929.273434 L752.549195,928.288479 L750.563398,928.288479 L750.563398,932.260072 L751.548353,932.260072 L751.548353,930.957389 L752.549195,930.957389 L752.549195,929.956548 L751.548353,929.956548 L751.548353,929.273434 L752.549195,929.273434 Z M749.912057,931.25923 L749.912057,929.273434 C749.912057,928.998069 749.814092,928.765071 749.618159,928.574434 C749.422226,928.383796 749.186581,928.288479 748.911216,928.288479 L747.27492,928.288479 L747.27492,932.260072 L748.911216,932.260072 C749.186581,932.260072 749.422226,932.164754 749.618159,931.974117 C749.814092,931.78348 749.912057,931.545186 749.912057,931.25923 Z M746.591806,929.956548 L746.591806,929.273434 C746.591806,928.998069 746.493841,928.765071 746.297908,928.574434 C746.101975,928.383796 745.866329,928.288479 745.590964,928.288479 L743.954668,928.288479 L743.954668,932.260072 L744.939623,932.260072 L744.939623,930.957389 L745.590964,930.957389 C745.866329,930.957389 746.101975,930.862072 746.297908,930.671435 C746.493841,930.480797 746.591806,930.242504 746.591806,929.956548 Z M752.231467,925 C752.59156,925 752.898694,925.12709 753.152877,925.381273 C753.40706,925.635456 753.53415,925.94259 753.53415,926.302682 L753.53415,934.245868 C753.53415,934.605961 753.40706,934.91839 753.152877,935.183164 C752.898694,935.447938 752.59156,935.580323 752.231467,935.580323 L744.288282,935.580323 C743.928189,935.580323 743.61576,935.447938 743.350986,935.183164 C743.086212,934.91839 742.953827,934.605961 742.953827,934.245868 L742.953827,926.302682 C742.953827,925.94259 743.086212,925.635456 743.350986,925.381273 C743.61576,925.12709 743.928189,925 744.288282,925 L752.231467,925 Z" transform="translate(-740 -925)"/>
</svg>
