<svg xmlns="http://www.w3.org/2000/svg" width="75" height="62" viewBox="0 0 75 62">
  <path fill-rule="evenodd" d="M70.3125,0.71875 C71.5820376,0.71875 72.6806594,1.17040564 73.6083984,2.07373047 C74.5361375,2.9770553 75,4.08788403 75,5.40625 L75,45.25 C75,46.5195376 74.5361375,47.6181594 73.6083984,48.5458984 C72.6806594,49.4736375 71.5820376,49.9375 70.3125,49.9375 L39.84375,49.9375 L39.84375,56.96875 L51.5625,56.96875 C52.1972688,56.96875 52.7465797,57.2006813 53.2104492,57.6645508 C53.6743187,58.1284203 53.90625,58.6777312 53.90625,59.3125 C53.90625,59.9472688 53.6743187,60.4965797 53.2104492,60.9604492 C52.7465797,61.4243187 52.1972688,61.65625 51.5625,61.65625 L23.4375,61.65625 C22.8027312,61.65625 22.2534203,61.4243187 21.7895508,60.9604492 C21.3256813,60.4965797 21.09375,59.9472688 21.09375,59.3125 C21.09375,58.6777312 21.3256813,58.1284203 21.7895508,57.6645508 C22.2534203,57.2006813 22.8027312,56.96875 23.4375,56.96875 L35.15625,56.96875 L35.15625,49.9375 L4.6875,49.9375 C3.4179624,49.9375 2.31934058,49.4736375 1.39160156,48.5458984 C0.463862549,47.6181594 0,46.5195376 0,45.25 L0,5.40625 C0,4.08788403 0.463862549,2.9770553 1.39160156,2.07373047 C2.31934058,1.17040564 3.4179624,0.71875 4.6875,0.71875 L70.3125,0.71875 Z M70.3125,45.25 L70.3125,5.40625 L4.6875,5.40625 L4.6875,45.25 L70.3125,45.25 Z"/>
</svg>
