<svg xmlns="http://www.w3.org/2000/svg" width="18" height="21" viewBox="0 0 18 21">
  <path fill="#6A6A6A" fill-rule="evenodd" d="M31.7070312,84.8085938 L31.8242188,84.984375 C31.8632814,85.0364586 31.8860677,85.0917966 31.8925781,85.1503906 C31.8990886,85.2089847 31.8958334,85.2643227 31.8828125,85.3164062 C31.8697916,85.3684898 31.8437502,85.4173175 31.8046875,85.4628906 C31.7656248,85.5084638 31.7200523,85.5507811 31.6679688,85.5898438 L31.4726562,85.6875 L28.5625,87.1914062 C28.4583328,87.2434898 28.3541672,87.2532554 28.25,87.2207031 C28.1458328,87.1881509 28.0611982,87.1197922 27.9960938,87.015625 L27.9375,86.859375 C27.8723955,86.7552078 27.8561196,86.6445318 27.8886719,86.5273438 C27.9212241,86.4101557 27.9895828,86.3255211 28.09375,86.2734375 L29.6757812,85.453125 L29.6367188,85.453125 C29.6236979,85.453125 29.6106771,85.4466146 29.5976562,85.4335938 C29.0117158,85.2903639 28.4518256,85.0820326 27.9179688,84.8085938 C27.3841119,84.5351549 26.8828148,84.2128925 26.4140625,83.8417969 C25.9453102,83.4707013 25.5221373,83.0540388 25.1445312,82.5917969 C24.7669252,82.129555 24.4348973,81.6250027 24.1484375,81.078125 C23.8880195,80.57031 23.6796883,80.0462267 23.5234375,79.5058594 C23.3671867,78.9654921 23.2662763,78.4186226 23.2207031,77.8652344 C23.17513,77.3118462 23.1816403,76.7552111 23.2402344,76.1953125 C23.2988284,75.6354139 23.4192699,75.082034 23.6015625,74.5351562 C23.7708342,73.9882785 23.9954413,73.4707056 24.2753906,72.9824219 C24.5553399,72.4941382 24.8776023,72.0351584 25.2421875,71.6054688 C25.6067727,71.1757791 26.0104145,70.785158 26.453125,70.4335938 C26.8958355,70.0820295 27.3776016,69.776043 27.8984375,69.515625 C28.0416674,69.4374996 28.1914055,69.4244789 28.3476562,69.4765625 C28.503907,69.5286461 28.6210934,69.6263014 28.6992188,69.7695312 C28.7773441,69.925782 28.7903648,70.0820305 28.7382812,70.2382812 C28.6861977,70.394532 28.5885424,70.5117184 28.4453125,70.5898438 C27.5729123,71.0455752 26.8144563,71.6445275 26.1699219,72.3867188 C25.5253874,73.12891 25.0533869,73.9687453 24.7539062,74.90625 C24.4544256,75.8437547 24.3470048,76.7975212 24.4316406,77.7675781 C24.5162765,78.7376351 24.7799457,79.6588498 25.2226562,80.53125 C25.4700533,80.9869814 25.7565088,81.4134095 26.0820312,81.8105469 C26.4075537,82.2076843 26.7688782,82.5657536 27.1660156,82.8847656 C27.563153,83.2037776 27.9928362,83.4804676 28.4550781,83.7148438 C28.91732,83.9492199 29.4023412,84.1315098 29.9101562,84.2617188 C29.9622398,84.2747396 30.0110675,84.2877604 30.0566406,84.3007812 C30.1022138,84.3138021 30.1510414,84.3268229 30.203125,84.3398438 L29.0507812,82.5429688 C28.9856768,82.4388016 28.9563802,82.3216152 28.9628906,82.1914062 C28.9694011,82.0611973 29.0247391,81.9700523 29.1289062,81.9179688 L29.2851562,81.8203125 C29.4023443,81.755208 29.5195307,81.7389321 29.6367188,81.7714844 C29.7539068,81.8040366 29.8450518,81.8723953 29.9101562,81.9765625 L31.7070312,84.7890625 L31.7070312,84.8085938 Z M39.8515625,73.5195312 C40.1119805,74.0273463 40.3203117,74.5514296 40.4765625,75.0917969 C40.6328133,75.6321642 40.7337237,76.1790337 40.7792969,76.7324219 C40.82487,77.2858101 40.8183597,77.8424451 40.7597656,78.4023438 C40.7011716,78.9622424 40.5807301,79.5156223 40.3984375,80.0625 C40.2291658,80.6093777 40.0078139,81.1302059 39.734375,81.625 C39.4609361,82.1197941 39.1451841,82.5787739 38.7871094,83.0019531 C38.4290347,83.4251323 38.0319032,83.8124982 37.5957031,84.1640625 C37.159503,84.5156268 36.6875025,84.8216133 36.1796875,85.0820312 C36.1276039,85.108073 36.0787763,85.1276041 36.0332031,85.140625 C35.98763,85.1536459 35.9388023,85.1601562 35.8867188,85.1601562 C35.7825516,85.1601562 35.6816411,85.1308597 35.5839844,85.0722656 C35.4863276,85.0136716 35.4114586,84.9322922 35.359375,84.828125 C35.2812496,84.6718742 35.2682289,84.5156258 35.3203125,84.359375 C35.3723961,84.2031242 35.4700514,84.0859379 35.6132812,84.0078125 C36.4856814,83.5520811 37.2343719,82.9531287 37.859375,82.2109375 C38.4843781,81.4687463 38.9466131,80.6289109 39.2460938,79.6914062 C39.5455744,78.7539016 39.6562504,77.8033902 39.578125,76.8398438 C39.4999996,75.8762973 39.2330752,74.9518273 38.7773438,74.0664062 C38.2955705,73.1419225 37.6575561,72.3541699 36.8632812,71.703125 C36.0690064,71.0520801 35.1640676,70.5963555 34.1484375,70.3359375 C34.0312494,70.2968748 33.9075527,70.2675782 33.7773438,70.2480469 C33.6471348,70.2285155 33.5234381,70.2057293 33.40625,70.1796875 L34.5585938,71.9765625 C34.6236982,72.0807297 34.6497396,72.197916 34.6367188,72.328125 C34.6236979,72.458334 34.5651047,72.5494789 34.4609375,72.6015625 L34.3046875,72.6992188 C34.2005203,72.7643232 34.0898443,72.7805991 33.9726562,72.7480469 C33.8554682,72.7154946 33.7643232,72.6471359 33.6992188,72.5429688 L31.9023438,69.7304688 L31.8828125,69.7304688 L31.7851562,69.5351562 C31.7460936,69.4830727 31.7233073,69.4277347 31.7167969,69.3691406 C31.7102864,69.3105466 31.7135416,69.2552086 31.7265625,69.203125 C31.7395834,69.1510414 31.7656248,69.1022138 31.8046875,69.0566406 C31.8437502,69.0110675 31.8893227,68.9687502 31.9414062,68.9296875 L32.1367188,68.8320312 L35.046875,67.328125 C35.1510422,67.2760414 35.2649733,67.2662759 35.3886719,67.2988281 C35.5123704,67.3313804 35.6067705,67.3997391 35.671875,67.5039062 L35.7304688,67.6601562 C35.7955732,67.7643234 35.8020836,67.8749994 35.75,67.9921875 C35.6979164,68.1093756 35.6197922,68.2005205 35.515625,68.265625 L33.953125,69.046875 C34.0442713,69.0598959 34.132161,69.0761718 34.2167969,69.0957031 C34.3014327,69.1152345 34.3828121,69.1380207 34.4609375,69.1640625 C35.0468779,69.3203133 35.6067682,69.5318997 36.140625,69.7988281 C36.6744818,70.0657565 37.1692686,70.3847638 37.625,70.7558594 C38.0807314,71.126955 38.4973939,71.5436175 38.875,72.0058594 C39.2526061,72.4681013 39.5781236,72.9726535 39.8515625,73.5195312 Z" transform="translate(-23 -67)"/>
</svg>
