<svg xmlns="http://www.w3.org/2000/svg" width="18" height="14" viewBox="0 0 18 14">
  <path fill="#F36F2B" fill-rule="evenodd" d="M53.5941397,40.9677169 C53.5941397,41.2467351 53.4825324,41.5257533 53.2816393,41.7266464 L43.6834136,51.3248721 C43.4825205,51.5257652 43.2035023,51.6373725 42.9244841,51.6373725 C42.6454659,51.6373725 42.3664477,51.5257652 42.1655546,51.3248721 L36.6075123,45.7668298 C36.4066192,45.5659367 36.2950119,45.2869185 36.2950119,45.0079003 C36.2950119,44.7288821 36.4066192,44.4498639 36.6075123,44.2489708 L38.1253712,42.7311119 C38.3262643,42.5302188 38.6052825,42.4186115 38.8843007,42.4186115 C39.1633189,42.4186115 39.4423371,42.5302188 39.6432302,42.7311119 L42.9244841,46.0235265 L50.2459214,38.6909285 C50.4468145,38.4900354 50.7258327,38.3784281 51.0048509,38.3784281 C51.2838691,38.3784281 51.5628873,38.4900354 51.7637804,38.6909285 L53.2816393,40.2087874 C53.4825324,40.4096805 53.5941397,40.6886987 53.5941397,40.9677169 Z" transform="translate(-36 -38)"/>
</svg>
