<?xml version="1.0" encoding="UTF-8"?>
<svg width="36px" height="24px" viewBox="0 0 36 24" version="1.1" xmlns="http://www.w3.org/2000/svg" xmlns:xlink="http://www.w3.org/1999/xlink">
    <!-- Generator: Sketch 47.1 (45422) - http://www.bohemiancoding.com/sketch -->
    <title>cc-stripe - FontAwesome</title>
    <desc>Created with Sketch.</desc>
    <defs></defs>
    <g id="Flow" stroke="none" stroke-width="1" fill="none" fill-rule="evenodd">
        <g id="27_paiement-copy" transform="translate(-138.000000, -673.000000)" fill="#464646">
            <path d="M162.953125,685.109375 C162.953125,685.828125 162.84375,686.375 162.625,686.765625 C162.4375,687.109375 162.140625,687.3125 161.8125,687.3125 C161.578125,687.3125 161.359375,687.265625 161.171875,687.171875 L161.171875,683.671875 C161.578125,683.25 161.9375,683.203125 162.0625,683.203125 C162.65625,683.203125 162.953125,683.859375 162.953125,685.109375 Z M169.796875,684.546875 L168.078125,684.546875 C168.140625,683.5 168.421875,683.015625 168.953125,683.015625 C169.484375,683.015625 169.765625,683.515625 169.796875,684.546875 Z M145.4375,686.65625 C145.4375,685.34375 144.640625,684.796875 143.34375,684.328125 C142.65625,684.078125 142.28125,683.875 142.28125,683.5625 C142.28125,683.296875 142.5,683.15625 142.875,683.15625 C143.59375,683.15625 144.3125,683.421875 144.8125,683.671875 L145.09375,681.921875 C144.703125,681.734375 143.890625,681.421875 142.765625,681.421875 C141.96875,681.421875 141.3125,681.625 140.84375,682.015625 C140.34375,682.421875 140.09375,683.015625 140.09375,683.71875 C140.09375,685 140.875,685.5625 142.15625,686.015625 C142.96875,686.3125 143.25,686.515625 143.25,686.84375 C143.25,687.15625 142.984375,687.328125 142.5,687.328125 C141.90625,687.328125 140.921875,687.03125 140.28125,686.65625 L140,688.421875 C140.546875,688.734375 141.5625,689.0625 142.625,689.0625 C143.46875,689.0625 144.15625,688.859375 144.640625,688.484375 C145.171875,688.0625 145.4375,687.453125 145.4375,686.65625 Z M150.046875,683.296875 L150.34375,681.5625 L148.84375,681.5625 L148.84375,679.453125 L146.828125,679.78125 L146.546875,681.5625 L145.828125,681.6875 L145.5625,683.296875 L146.53125,683.296875 L146.53125,686.71875 C146.53125,687.609375 146.765625,688.21875 147.21875,688.59375 C147.609375,688.90625 148.171875,689.0625 148.953125,689.0625 C149.5625,689.0625 149.921875,688.953125 150.1875,688.890625 L150.1875,687.046875 C150.046875,687.078125 149.71875,687.15625 149.5,687.15625 C149.046875,687.15625 148.84375,686.90625 148.84375,686.375 L148.84375,683.296875 L150.046875,683.296875 Z M154.984375,683.6875 L154.984375,681.515625 C154.828125,681.484375 154.6875,681.46875 154.546875,681.46875 C153.890625,681.46875 153.359375,681.8125 153.15625,682.4375 L153,681.5625 L150.953125,681.5625 L150.953125,688.921875 L153.296875,688.921875 L153.296875,684.140625 C153.59375,683.78125 154.015625,683.65625 154.578125,683.65625 C154.703125,683.65625 154.828125,683.65625 154.984375,683.6875 Z M155.5625,688.921875 L157.90625,688.921875 L157.90625,681.5625 L155.5625,681.5625 L155.5625,688.921875 Z M165.28125,685.03125 C165.28125,683.78125 165.046875,682.828125 164.578125,682.234375 C164.15625,681.6875 163.578125,681.421875 162.84375,681.421875 C162.171875,681.421875 161.578125,681.703125 161.015625,682.296875 L160.890625,681.5625 L158.828125,681.5625 L158.828125,691.640625 L161.171875,691.25 L161.171875,688.890625 C161.53125,689 161.90625,689.0625 162.234375,689.0625 C162.8125,689.0625 163.671875,688.90625 164.328125,688.1875 C164.96875,687.5 165.28125,686.4375 165.28125,685.03125 Z M157.96875,679.59375 C157.96875,678.90625 157.421875,678.359375 156.734375,678.359375 C156.046875,678.359375 155.5,678.90625 155.5,679.59375 C155.5,680.28125 156.046875,680.84375 156.734375,680.84375 C157.421875,680.84375 157.96875,680.28125 157.96875,679.59375 Z M172,685.171875 C172,684 171.75,683.078125 171.25,682.421875 C170.734375,681.765625 169.96875,681.421875 169,681.421875 C167,681.421875 165.765625,682.890625 165.765625,685.265625 C165.765625,686.578125 166.09375,687.578125 166.75,688.203125 C167.328125,688.78125 168.171875,689.0625 169.265625,689.0625 C170.265625,689.0625 171.1875,688.828125 171.765625,688.4375 L171.515625,686.828125 C170.9375,687.140625 170.265625,687.3125 169.515625,687.3125 C169.0625,687.3125 168.75,687.21875 168.53125,687.015625 C168.28125,686.8125 168.140625,686.46875 168.09375,685.984375 L171.96875,685.984375 C171.984375,685.875 172,685.34375 172,685.171875 Z M174,675 L174,695 C174,696.09375 173.09375,697 172,697 L140,697 C138.90625,697 138,696.09375 138,695 L138,675 C138,673.90625 138.90625,673 140,673 L172,673 C173.09375,673 174,673.90625 174,675 Z" id="cc-stripe---FontAwesome"></path>
        </g>
    </g>
</svg>