<svg xmlns="http://www.w3.org/2000/svg" width="72" height="73" viewBox="0 0 72 73">
  <path fill-opacity=".76" fill-rule="evenodd" d="M889.9375,590.640625 C891.250007,590.265623 892.42187,590.476559 893.453125,591.273438 C894.48438,592.070316 895,593.124993 895,594.4375 L895,649.140625 C895,650.265631 894.625004,651.308589 893.875,652.269531 C893.124996,653.230474 892.210943,653.851561 891.132812,654.132812 L861.390625,662.21875 C860.921873,662.359376 860.441409,662.453125 859.949219,662.5 C859.457029,662.546875 859.023439,662.570312 858.648438,662.570312 C858.13281,662.570312 857.628909,662.535157 857.136719,662.464844 C856.644529,662.394531 856.210939,662.3125 855.835938,662.21875 L826.867188,654.203125 C825.789057,653.874998 824.875004,653.230474 824.125,652.269531 C823.374996,651.308589 823,650.265631 823,649.140625 L823,594.4375 C823,593.124993 823.51562,592.070316 824.546875,591.273438 C825.57813,590.476559 826.749993,590.265623 828.0625,590.640625 L857.03125,598.65625 C857.406252,598.75 857.93359,598.796875 858.613281,598.796875 C859.292972,598.796875 859.820311,598.75 860.195312,598.65625 L889.9375,590.640625 Z M856.75,657.789062 L856.75,603.15625 C856.609374,603.15625 856.457032,603.132813 856.292969,603.085938 C856.128905,603.039062 855.976563,603.015625 855.835938,603.015625 L827.5,595.140625 L827.5,649.140625 C827.5,649.281251 827.558593,649.421874 827.675781,649.5625 C827.792969,649.703126 827.898437,649.796875 827.992188,649.84375 L856.75,657.789062 Z M890.5,649.140625 L890.5,595.140625 L861.390625,603.015625 L861.25,603.015625 L861.25,657.578125 L889.9375,649.84375 C890.03125,649.796875 890.148437,649.703126 890.289062,649.5625 C890.429688,649.421874 890.5,649.281251 890.5,649.140625 Z M868.140625,616.234375 C867.671873,616.234375 867.226565,616.093751 866.804688,615.8125 C866.38281,615.531249 866.101563,615.132815 865.960938,614.617188 C865.820312,614.007809 865.902342,613.433596 866.207031,612.894531 C866.51172,612.355466 866.94531,611.992188 867.507812,611.804688 L883.257812,607.375 C883.867191,607.234374 884.441404,607.316405 884.980469,607.621094 C885.519534,607.925783 885.882812,608.382809 886.070312,608.992188 C886.210938,609.55469 886.128908,610.105466 885.824219,610.644531 C885.51953,611.183596 885.08594,611.546874 884.523438,611.734375 L868.773438,616.164062 C868.679687,616.210938 868.574219,616.234375 868.457031,616.234375 L868.140625,616.234375 Z M868.140625,629.734375 C867.671873,629.734375 867.226565,629.593751 866.804688,629.3125 C866.38281,629.031249 866.101563,628.632815 865.960938,628.117188 C865.820312,627.507809 865.902342,626.933596 866.207031,626.394531 C866.51172,625.855466 866.94531,625.492188 867.507812,625.304688 L883.257812,620.875 C883.867191,620.734374 884.441404,620.816405 884.980469,621.121094 C885.519534,621.425783 885.882812,621.882809 886.070312,622.492188 C886.210938,623.05469 886.128908,623.605466 885.824219,624.144531 C885.51953,624.683596 885.08594,625.046874 884.523438,625.234375 L868.773438,629.664062 C868.679687,629.710938 868.574219,629.734375 868.457031,629.734375 L868.140625,629.734375 Z M868.140625,643.234375 C867.671873,643.234375 867.226565,643.093751 866.804688,642.8125 C866.38281,642.531249 866.101563,642.132815 865.960938,641.617188 C865.820312,641.007809 865.902342,640.433596 866.207031,639.894531 C866.51172,639.355466 866.94531,638.992188 867.507812,638.804688 L883.257812,634.375 C883.867191,634.234374 884.441404,634.316405 884.980469,634.621094 C885.519534,634.925783 885.882812,635.382809 886.070312,635.992188 C886.210938,636.55469 886.128908,637.105466 885.824219,637.644531 C885.51953,638.183596 885.08594,638.546874 884.523438,638.734375 L868.773438,643.164062 C868.679687,643.210938 868.574219,643.234375 868.457031,643.234375 L868.140625,643.234375 Z M850.773438,611.804688 C851.33594,611.992188 851.76953,612.355466 852.074219,612.894531 C852.378908,613.433596 852.460938,614.007809 852.320312,614.617188 C852.179687,615.132815 851.89844,615.531249 851.476562,615.8125 C851.054685,616.093751 850.609377,616.234375 850.140625,616.234375 L849.824219,616.234375 C849.707031,616.234375 849.601563,616.210938 849.507812,616.164062 L833.757812,611.734375 C833.19531,611.546874 832.76172,611.183596 832.457031,610.644531 C832.152342,610.105466 832.070312,609.55469 832.210938,608.992188 C832.398438,608.382809 832.761716,607.925783 833.300781,607.621094 C833.839846,607.316405 834.414059,607.234374 835.023438,607.375 L850.773438,611.804688 Z M850.773438,625.304688 C851.33594,625.492188 851.76953,625.855466 852.074219,626.394531 C852.378908,626.933596 852.460938,627.507809 852.320312,628.117188 C852.179687,628.632815 851.89844,629.031249 851.476562,629.3125 C851.054685,629.593751 850.609377,629.734375 850.140625,629.734375 L849.824219,629.734375 C849.707031,629.734375 849.601563,629.710938 849.507812,629.664062 L833.757812,625.234375 C833.19531,625.046874 832.76172,624.683596 832.457031,624.144531 C832.152342,623.605466 832.070312,623.05469 832.210938,622.492188 C832.398438,621.882809 832.761716,621.425783 833.300781,621.121094 C833.839846,620.816405 834.414059,620.734374 835.023438,620.875 L850.773438,625.304688 Z M850.773438,638.804688 C851.33594,638.992188 851.76953,639.355466 852.074219,639.894531 C852.378908,640.433596 852.460938,641.007809 852.320312,641.617188 C852.179687,642.132815 851.89844,642.531249 851.476562,642.8125 C851.054685,643.093751 850.609377,643.234375 850.140625,643.234375 L849.824219,643.234375 C849.707031,643.234375 849.601563,643.210938 849.507812,643.164062 L833.757812,638.734375 C833.19531,638.546874 832.76172,638.183596 832.457031,637.644531 C832.152342,637.105466 832.070312,636.55469 832.210938,635.992188 C832.398438,635.382809 832.761716,634.925783 833.300781,634.621094 C833.839846,634.316405 834.414059,634.234374 835.023438,634.375 L850.773438,638.804688 Z" transform="translate(-823 -590)"/>
</svg>
