<svg xmlns="http://www.w3.org/2000/svg" width="14" height="16" viewBox="0 0 14 16">
  <path fill="#A4A4A4" fill-rule="evenodd" d="M15.2510848,31.2824629 C15.7802381,31.2824629 16.2320084,31.4696605 16.6064093,31.8440615 C16.9808102,32.2184624 17.1680079,32.6702327 17.1680079,33.199386 L17.1680079,38.9501552 C17.1680079,39.4793085 16.9808102,39.9310788 16.6064093,40.3054797 C16.2320084,40.6798807 15.7802381,40.8670783 15.2510848,40.8670783 L6.6249309,40.8670783 C6.09577761,40.8670783 5.64400728,40.6798807 5.26960637,40.3054797 C4.89520546,39.9310788 4.70800781,39.4793085 4.70800781,38.9501552 L4.70800781,33.199386 C4.70800781,32.6702327 4.89520546,32.2184624 5.26960637,31.8440615 C5.64400728,31.4696605 6.09577761,31.2824629 6.6249309,31.2824629 L7.43363282,31.2824629 L7.23894532,30.4138571 C7.09916898,29.8946879 7.05673751,29.3805183 7.11164965,28.8713331 C7.16656178,28.3621478 7.30883199,27.8929057 7.53846455,27.4635927 C7.76809711,27.0342796 8.08258916,26.6598843 8.48195013,26.3403956 C8.8813111,26.0209068 9.35554515,25.7862857 9.90466648,25.6365254 C10.4537878,25.496749 10.9804372,25.4643014 11.4846304,25.5391816 C11.9888237,25.6140618 12.4530738,25.7762998 12.8773949,26.0259004 C13.3017159,26.275501 13.6661273,26.6074648 13.9706401,27.0218018 C14.2751528,27.4361388 14.497294,27.9078769 14.6370703,28.4370302 L14.8467338,29.2457321 C14.8766859,29.3755244 14.8592141,29.4978269 14.7943179,29.6126432 C14.7294218,29.7274595 14.632079,29.7998425 14.5022867,29.8297946 C14.3724944,29.8597467 14.2501919,29.8422749 14.1353756,29.7773788 C14.0205594,29.7124826 13.9481763,29.6151398 13.9182242,29.4853475 L13.7085607,28.6766456 C13.4988962,27.8779236 13.0621017,27.2714033 12.3981641,26.8570662 C11.7342265,26.4427292 10.9879318,26.3453865 10.1592578,26.565035 C9.31061576,26.7946676 8.71158329,27.2564218 8.36214244,27.9503114 C8.01270159,28.6442011 7.94281447,29.3855038 8.15247898,30.1742417 L8.40707032,31.2824629 L15.2510848,31.2824629 Z M16.2095463,38.9501552 L16.2095463,33.199386 C16.2095463,32.9398013 16.1146995,32.7151642 15.925003,32.5254677 C15.7353066,32.3357712 15.5106694,32.2409244 15.2510848,32.2409244 L6.6249309,32.2409244 C6.36534626,32.2409244 6.14070909,32.3357712 5.95101262,32.5254677 C5.76131616,32.7151642 5.66646935,32.9398013 5.66646935,33.199386 L5.66646935,38.9501552 C5.66646935,39.2197239 5.76131616,39.446857 5.95101262,39.6315615 C6.14070909,39.8162659 6.36534626,39.9086168 6.6249309,39.9086168 L15.2510848,39.9086168 C15.5106694,39.9086168 15.7353066,39.8162659 15.925003,39.6315615 C16.1146995,39.446857 16.2095463,39.2197239 16.2095463,38.9501552 Z M10.9380078,34.1578475 C11.2075765,34.1578475 11.4347096,34.2526943 11.6194141,34.4423908 C11.8041185,34.6320873 11.8964694,34.8567244 11.8964694,35.1163091 C11.8964694,35.2960215 11.8515419,35.4582595 11.7616857,35.6030278 C11.6718295,35.7477962 11.5570149,35.8601148 11.4172386,35.9399869 L11.4172386,37.5124629 C11.4172386,37.6422552 11.3698152,37.7545738 11.274967,37.849422 C11.1801187,37.9442703 11.0678001,37.9916937 10.9380078,37.9916937 C10.8082155,37.9916937 10.6958969,37.9442703 10.6010487,37.849422 C10.5062005,37.7545738 10.4587771,37.6422552 10.4587771,37.5124629 L10.4587771,35.9399869 C10.3190007,35.8601148 10.2041862,35.7477962 10.1143299,35.6030278 C10.0244737,35.4582595 9.97954629,35.2960215 9.97954629,35.1163091 C9.97954629,34.8567244 10.0718971,34.6320873 10.2566016,34.4423908 C10.441306,34.2526943 10.6684392,34.1578475 10.9380078,34.1578475 Z" transform="translate(-4 -25)"/>
</svg>
