<svg xmlns="http://www.w3.org/2000/svg" width="27" height="30" viewBox="0 0 27 30">
  <path fill="#A4A4A4" fill-rule="evenodd" d="M35.0655196,69.4102412 L35.235748,69.6655838 C35.2924911,69.7412412 35.3255907,69.8216261 35.3350479,69.9067407 C35.3445051,69.9918553 35.3397765,70.0722401 35.3208622,70.1478976 C35.3019478,70.223555 35.2641197,70.2944828 35.2073766,70.3606831 C35.1506335,70.4268834 35.0844342,70.4883541 35.0087768,70.5450972 L34.7250628,70.6869542 L30.497724,72.8715521 C30.3464092,72.9472095 30.1950965,72.9613951 30.0437816,72.9141092 C29.8924667,72.8668233 29.7695252,72.7675244 29.6749534,72.6162095 L29.5898392,72.3892383 C29.4952674,72.2379234 29.4716248,72.0771537 29.5189107,71.9069244 C29.5661966,71.7366952 29.6654955,71.6137537 29.8168104,71.5380962 L32.1148939,70.3464974 L32.0581511,70.3464974 C32.0392367,70.3464974 32.0203226,70.3370404 32.0014083,70.318126 C31.150262,70.110068 30.3369567,69.8074428 29.5614678,69.4102412 C28.785979,69.0130396 28.057787,68.5449161 27.37687,68.0058568 C26.6959529,67.4667975 26.0812454,66.861547 25.5327289,66.1900872 C24.9842124,65.5186273 24.5019034,64.7857068 24.0857875,63.9913036 C23.7075002,63.2536435 23.404875,62.4923519 23.1779027,61.7074059 C22.9509303,60.9224599 22.8043462,60.1280686 22.7381459,59.3242082 C22.6719457,58.5203478 22.6814027,57.711771 22.7665173,56.8984534 C22.851632,56.0851359 23.0265872,55.2812876 23.2913883,54.4868844 C23.537275,53.6924812 23.8635428,52.9406466 24.2702016,52.231358 C24.6768604,51.5220695 25.1449838,50.8553482 25.6745859,50.2311743 C26.204188,49.6070003 26.7905245,49.039578 27.4336128,48.5288902 C28.0767011,48.0182025 28.776522,47.5737216 29.5330964,47.1954344 C29.7411544,47.0819482 29.9586663,47.0630341 30.1856386,47.1386916 C30.412611,47.214349 30.5828377,47.3562046 30.6963239,47.5642626 C30.80981,47.7912349 30.8287241,48.0182039 30.7530667,48.2451762 C30.6774092,48.4721486 30.5355536,48.6423753 30.3274956,48.7558614 C29.0602334,49.4178641 27.9584884,50.2879117 27.0222275,51.3660303 C26.0859665,52.4441489 25.4003312,53.6641069 24.9653009,55.025941 C24.5302706,56.387775 24.3742294,57.7732313 24.4971728,59.1823512 C24.6201161,60.5914712 25.0031262,61.9296422 25.6462145,63.1969044 C26.0055874,63.8589071 26.4216971,64.4783431 26.8945562,65.0552312 C27.3674152,65.6321192 27.8922809,66.1522563 28.4691689,66.6156582 C29.0460569,67.0790601 29.6702215,67.4809842 30.3416813,67.8214427 C31.0131412,68.1619012 31.7176906,68.4266983 32.4553507,68.615842 C32.5310081,68.6347563 32.6019359,68.6536704 32.6681362,68.6725848 C32.7343365,68.6914991 32.8052643,68.7104132 32.8809217,68.7293276 L31.2070091,66.1191587 C31.1124373,65.9678438 31.0698806,65.7976171 31.0793378,65.6084735 C31.0887949,65.4193299 31.1691798,65.2869313 31.3204947,65.2112739 L31.5474659,65.0694169 C31.7176951,64.974845 31.8879218,64.9512025 32.0581511,64.9984884 C32.2283803,65.0457743 32.3607789,65.1450732 32.4553507,65.2963881 L35.0655196,69.3818698 L35.0655196,69.4102412 Z M46.8963937,53.0115715 C47.2746809,53.7492316 47.5773062,54.5105233 47.8042785,55.2954693 C48.0312508,56.0804153 48.177835,56.8748066 48.2440352,57.678667 C48.3102355,58.4825273 48.3007784,59.2911042 48.2156638,60.1044217 C48.1305492,60.9177393 47.955594,61.7215876 47.6907929,62.5159908 C47.4449062,63.310394 47.1233669,64.0669571 46.7261653,64.7857029 C46.3289637,65.5044486 45.8702973,66.1711698 45.3501523,66.7858866 C44.8300074,67.4006034 44.253128,67.9632972 43.6194969,68.4739849 C42.9858658,68.9846727 42.3002304,69.4291535 41.5625703,69.8074408 C41.4869129,69.8452695 41.4159851,69.8736406 41.3497848,69.892555 C41.2835846,69.9114693 41.2126568,69.9209264 41.1369993,69.9209264 C40.9856844,69.9209264 40.8391003,69.8783697 40.6972426,69.7932551 C40.5553849,69.7081405 40.446629,69.5899275 40.3709715,69.4386126 C40.2574853,69.2116402 40.2385713,68.9846713 40.3142287,68.757699 C40.3898862,68.5307266 40.5317417,68.3604999 40.7397997,68.2470137 C42.007062,67.5850111 43.0946214,66.7149635 44.0025108,65.6368449 C44.9104002,64.5587263 45.5818499,63.3387682 46.0168803,61.9769342 C46.4519106,60.6151001 46.6126802,59.2343724 46.4991941,57.8347097 C46.3857079,56.4350469 45.9979693,55.0921474 45.3359666,53.8059708 C44.6361353,52.4630511 43.7093454,51.3187494 42.5555694,50.3730313 C41.4017933,49.4273132 40.0872649,48.7653205 38.6119447,48.3870332 C38.4417154,48.3302901 38.2620317,48.2877335 38.072888,48.2593619 C37.8837444,48.2309904 37.7040607,48.1978907 37.5338314,48.160062 L39.2077441,50.7702309 C39.3023159,50.9215458 39.340144,51.0917725 39.3212297,51.2809161 C39.3023153,51.4700597 39.217202,51.6024583 39.0658871,51.6781157 L38.8389159,51.8199727 C38.687601,51.9145445 38.5268313,51.9381871 38.3566021,51.8909012 C38.1863728,51.8436153 38.0539743,51.7443164 37.9594024,51.5930015 L35.3492336,47.5075198 L35.3208622,47.5075198 L35.1790052,47.2238058 C35.1222621,47.1481483 35.0891624,47.0677635 35.0797053,46.9826489 C35.0702481,46.8975343 35.0749766,46.8171494 35.093891,46.741492 C35.1128053,46.6658345 35.1506335,46.5949067 35.2073766,46.5287065 C35.2641197,46.4625062 35.3303189,46.4010354 35.4059764,46.3442924 L35.6896904,46.2024354 L39.9170291,44.0178375 C40.068344,43.9421801 40.2338422,43.9279945 40.4135286,43.9752804 C40.593215,44.0225663 40.7303421,44.1218652 40.8249139,44.2731801 L40.9100281,44.5001513 C41.0045999,44.6514662 41.014057,44.8122359 40.9383995,44.9824651 C40.8627421,45.1526944 40.7492576,45.2850929 40.5979427,45.3796647 L38.3282307,46.5145208 C38.4606312,46.5334351 38.5883012,46.5570777 38.7112446,46.5854493 C38.8341879,46.6138208 38.9524009,46.6469204 39.0658871,46.6847492 C39.9170334,46.9117215 40.7303387,47.2190753 41.5058275,47.6068197 C42.2813164,47.9945641 43.0000513,48.457959 43.662054,48.9970183 C44.3240567,49.5360776 44.9293072,50.1413281 45.4778236,50.812788 C46.0263401,51.4842478 46.4991921,52.2171683 46.8963937,53.0115715 Z" transform="translate(-22 -43)"/>
</svg>
