<svg xmlns="http://www.w3.org/2000/svg" width="77" height="77" viewBox="0 0 77 77">
  <path fill="#F36F2B" fill-rule="evenodd" d="M242.5,835.411058 C248.052912,835.411058 253.235553,833.992001 258.048077,831.153846 C262.737203,828.439089 266.439089,824.737203 269.153846,820.048077 C271.992001,815.235553 273.411058,810.052912 273.411058,804.5 C273.411058,798.947088 271.992001,793.764447 269.153846,788.951923 C266.439089,784.262797 262.737203,780.560911 258.048077,777.846154 C253.235553,775.007999 248.052912,773.588942 242.5,773.588942 C236.947088,773.588942 231.764447,775.007999 226.951923,777.846154 C222.262797,780.560911 218.560911,784.262797 215.846154,788.951923 C213.007999,793.764447 211.588942,798.947088 211.588942,804.5 C211.588942,810.052912 213.007999,815.235553 215.846154,820.048077 C218.560911,824.737203 222.262797,828.439089 226.951923,831.153846 C231.764447,833.992001 236.947088,835.411058 242.5,835.411058 Z M242.5,766 C249.533689,766 256.042839,767.758396 262.027644,771.27524 C267.827353,774.606988 272.393012,779.172647 275.72476,784.972356 C279.241604,790.957161 281,797.466311 281,804.5 C281,811.533689 279.241604,818.042839 275.72476,824.027644 C272.393012,829.827353 267.827353,834.393012 262.027644,837.72476 C256.042839,841.241604 249.533689,843 242.5,843 C235.466311,843 228.957161,841.241604 222.972356,837.72476 C217.172647,834.331313 212.606988,829.734805 209.27524,823.935096 C205.758396,817.950291 204,811.47199 204,804.5 C204,797.52801 205.758396,791.049709 209.27524,785.064904 C212.668687,779.265195 217.265195,774.668687 223.064904,771.27524 C229.049709,767.758396 235.52801,766 242.5,766 Z M238.705529,785.157452 L246.294471,785.157452 L246.294471,808.294471 L238.705529,808.294471 L238.705529,785.157452 Z M238.705529,816.06851 L246.294471,816.06851 L246.294471,823.842548 L238.705529,823.842548 L238.705529,816.06851 Z" transform="translate(-204 -766)"/>
</svg>
