<svg xmlns="http://www.w3.org/2000/svg" width="89" height="110" viewBox="0 0 89 110">
  <path fill="#F36F2B" d="M753.867161,338 C752.445803,338.327609 751.110011,338.616957 749.78135,338.944565 C749.624478,338.980435 749.410561,339.205217 749.410561,339.343913 C749.372532,340.745217 749.382039,342.146522 749.382039,343.660217 C750.867572,343.342174 752.234263,343.071957 753.598576,342.763478 C753.700781,342.744348 753.857653,342.576957 753.867161,342.483696 C753.876668,340.998696 753.867161,339.513696 753.867161,338 Z M748.267295,339.269783 L745.324751,339.867609 C743.794058,340.195217 743.803565,340.202391 743.803565,341.792609 L743.803564,344.726739 C745.353273,344.435 746.810284,344.164783 748.267295,343.885 L748.267295,339.269783 Z M742.724474,340.410435 C741.250825,340.673478 739.855612,340.905435 738.462776,341.175652 C738.370079,341.185217 738.248859,341.39087 738.248859,341.503261 C738.232221,342.856739 738.241729,344.222174 738.241729,345.659348 C739.670218,345.425 740.989371,345.221739 742.28951,344.987391 C742.455889,344.958696 742.698328,344.753043 742.698328,344.631087 C742.733981,343.248913 742.724474,341.866739 742.724474,340.410435 Z M731.472451,342.268478 C729.951265,342.47413 728.48237,342.660652 727.025359,342.856739 L727.025359,347.153913 C728.539415,346.976957 730.005933,346.8 731.472451,346.630217 L731.472451,342.268478 Z M759.38146,342.538696 C757.998131,342.849565 756.633818,343.146087 755.279011,343.473696 C755.176807,343.492826 755.017558,343.650652 755.017558,343.753478 C754.998543,345.061522 754.998543,346.369565 754.998543,347.732609 L755.00805,347.732609 L759.38146,346.809565 L759.38146,342.538696 Z M725.882093,342.988261 C724.303863,343.165217 722.827837,343.323043 721.342304,343.483261 L721.342304,347.732609 C722.792184,347.593913 724.194527,347.462391 725.596871,347.31413 C725.696699,347.304565 725.874963,347.134783 725.874963,347.041522 C725.8916,345.707174 725.882093,344.38 725.882093,342.988261 Z M720.172892,343.586087 C718.632691,343.727174 717.163796,343.84913 715.697278,343.978261 L715.697278,348.182174 C717.211333,348.060217 718.668344,347.947826 720.172892,347.835435 L720.172892,343.586087 Z M714.508851,344.064348 C713.013811,344.145652 711.5568,344.231739 710.042744,344.315435 L710.042744,348.516956 C711.575815,348.423696 713.042333,348.34 714.511228,348.256304 L714.508851,344.064348 Z M693.005462,344.614348 L693.005462,348.713044 L697.473946,348.713044 L697.473946,344.614348 L693.005462,344.614348 Z M698.71704,344.623913 L698.71704,348.722609 L703.173639,348.722609 L703.173639,344.623913 L698.71704,344.623913 Z M748.267295,344.93 C746.883967,345.183478 745.52916,345.425 744.183861,345.688043 C744.043627,345.716739 743.820203,345.893696 743.810696,346.006087 C743.794058,347.228043 743.801188,348.452391 743.801188,349.75087 C745.343766,349.487826 746.800777,349.248696 748.269672,349.004783 L748.267295,344.93 Z M742.698328,346.015652 C737.452614,346.742609 732.233044,347.471957 726.968315,348.21087 L726.968315,357.728261 L717.128143,358.177826 L717.128143,354.382826 C718.539994,354.296739 719.923323,354.215435 721.287636,354.138913 L721.287636,348.78 C715.614088,349.098044 709.997584,349.406522 704.324036,349.712609 L704.324036,358.868913 L693.014969,358.868913 L693.014969,363.55587 L697.416901,363.55587 L697.416901,367.181087 L693.024477,367.181087 L693.024477,371.796304 L698.681387,371.796304 L698.681387,386.610435 L703.007259,386.610435 L703.007259,390.197391 L698.698025,390.197391 L698.698025,395.84087 L703.023897,395.84087 L703.023897,399.427826 L698.643357,399.427826 L698.643357,414.222826 L693.024477,414.222826 L693.024477,423.553696 L697.388379,423.553696 L697.388379,427.131087 L704.371573,427.131087 L704.371573,436.323261 L715.799483,436.827826 L715.799483,433.288696 C717.30403,433.427391 718.715881,433.549348 720.191907,433.68087 L720.191907,427.786304 C722.495078,427.963261 724.712681,428.130652 726.996837,428.31 L726.996837,437.78913 C732.271074,438.518478 737.478759,439.247826 742.733981,439.984348 L742.733981,430.055652 C743.682345,430.120217 744.516621,430.175217 745.353273,430.242174 C748.24115,430.438261 751.100504,430.402391 753.933713,429.644348 C759.150905,428.233478 762.69717,425.115217 764.116151,419.770652 C764.997963,416.473044 765.119183,413.122826 764.786424,409.73913 C764.505955,406.955652 763.773884,404.31087 762.371541,401.855 C761.9342,401.099348 761.480221,400.649783 760.524726,400.733478 C759.745118,400.81 758.946496,400.685652 758.147873,400.649783 L755.036572,400.511087 C755.036572,398.968696 755.017558,397.493261 755.055587,396.027391 C755.065095,395.568261 754.905846,395.353044 754.508911,395.233478 C752.742909,394.707391 750.979284,394.140652 749.196645,393.662391 C748.16509,393.382609 747.097883,393.251087 746.030676,393.064565 L746.030676,391.58913 C746.030676,389.891304 746.030676,389.898478 747.656444,389.329348 C750.46113,388.348913 753.234918,387.311087 755.621278,385.443478 C758.246026,383.406369 760.229499,380.649328 761.332856,377.504348 C762.354903,374.618043 762.445223,371.609783 762.221799,368.591956 C762.064927,366.265217 761.534889,364.024565 760.448667,361.951304 C759.612863,360.350371 758.357765,359.009911 756.819212,358.075 C753.515386,356.056739 749.883555,355.516304 746.094851,355.731522 C744.982484,355.786522 743.877247,355.860652 742.752996,355.934783 C742.724474,355.552174 742.714966,355.241304 742.688821,354.916087 L738.362948,355.466087 L738.362948,351.62087 C739.819959,351.405652 741.257955,351.202391 742.698328,350.987174 L742.698328,346.015652 Z M759.390967,347.902391 C757.914941,348.201304 756.467438,348.500217 755.027065,348.79913 L755.027065,352.983913 C756.524482,352.711304 757.962478,352.441087 759.390967,352.17087 L759.390967,347.902391 Z M753.857653,349.021522 C752.324583,349.303696 750.867572,349.571522 749.448591,349.84413 L749.448591,353.935652 C750.950762,353.672609 752.400642,353.440652 753.857653,353.189565 L753.857653,349.021522 Z M698.688517,349.731739 L698.688517,353.299565 L703.164132,353.299565 L703.164132,349.731739 L698.688517,349.731739 Z M748.257788,350.042609 C746.746109,350.281739 745.286721,350.525652 743.820203,350.769565 L743.820203,354.777391 C745.299609,354.560439 746.778805,354.342033 748.257788,354.122174 L748.257788,350.042609 Z M693.007839,354.308696 L693.007839,357.953043 L697.483453,357.953043 L697.483453,354.308696 L693.007839,354.308696 Z M698.719417,354.327826 L698.719417,357.933913 L703.185523,357.933913 L703.185523,354.327826 L698.719417,354.327826 Z M676.032354,358.213696 L676.032354,361.951304 C677.536902,362.023043 679.003421,362.099565 680.498461,362.183261 L680.498461,358.457609 C678.993913,358.373913 677.527395,358.290217 676.029978,358.213696 L676.032354,358.213696 Z M681.67738,358.634565 L681.67738,362.295652 L686.098327,362.295652 L686.098327,358.636956 L681.67738,358.634565 Z M687.341421,358.840217 L687.341421,362.475 L691.807528,362.475 L691.807528,358.840217 L687.341421,358.840217 Z M714.525489,362.941304 L714.525489,366.621522 L710.097412,366.817609 L710.097412,363.156522 C711.592453,363.08 713.039956,363.013043 714.525489,362.941304 Z M759.379083,363.249783 L759.379083,367.563696 L755.09124,368.106522 L755.09124,363.883478 C756.474568,363.668261 757.884042,363.472174 759.379083,363.249783 Z M681.667873,363.285652 L681.667873,366.920435 L686.105458,366.920435 L686.105458,363.285652 L681.667873,363.285652 Z M704.471401,363.323913 L708.825796,363.323913 L708.825796,366.891739 L704.471401,366.891739 L704.471401,363.323913 Z M676.006209,367.723913 C676.006209,368.807174 675.987194,369.947826 676.015716,371.076522 C676.015716,371.179348 676.229633,371.356304 676.348476,371.36587 C677.715166,371.385 679.07948,371.375435 680.481823,371.375435 L680.481823,367.723913 L676.006209,367.723913 Z M687.334291,368.077826 L687.334291,371.712609 L691.809905,371.712609 L691.809905,368.077826 L687.334291,368.077826 Z M732.08568,368.974565 C741.369667,368.733044 741.117721,372.748043 741.184273,375.663044 C741.303116,381.024348 739.085512,385.845217 727.916679,386.713261 C727.54589,386.741957 718.501964,387.124565 718.371237,387.124565 L718.371237,369.629783 C718.744403,369.601087 730.654814,369.012826 732.08568,368.974565 Z M676.032354,372.403696 L676.032354,376.110217 L680.488954,376.110217 L680.488954,372.403696 L676.032354,372.403696 Z M687.348552,372.690652 L687.348552,376.335 L691.798021,376.335 L691.798021,372.693043 L687.348552,372.690652 Z M693.005462,372.748043 L693.005462,376.373261 L697.488207,376.373261 L697.488207,372.745652 L693.005462,372.748043 Z M702.056518,372.786304 L706.465581,372.786304 L706.465581,376.335 L702.058895,376.335 L702.056518,372.786304 Z M759.362445,374.28087 L759.362445,378.604348 C757.950594,378.7 756.529236,378.800435 755.060341,378.896087 L755.060341,374.682609 C756.500714,374.551087 757.903057,374.412391 759.362445,374.28087 Z M681.696395,377.205435 L681.696395,380.885652 L686.09595,380.885652 L686.09595,377.203043 L681.696395,377.205435 Z M693.012592,377.363261 L693.012592,380.969348 L697.469192,380.969348 L697.469192,377.36087 L693.012592,377.363261 Z M708.40747,377.391956 L712.790387,377.391956 L712.790387,380.921522 L708.40747,380.921522 L708.40747,377.391956 Z M676.044239,381.76087 L676.044239,385.460217 L680.500838,385.460217 L680.500838,381.76087 L676.044239,381.76087 Z M681.67738,381.873261 L681.67738,385.515217 L686.126849,385.515217 L686.126849,381.873261 L681.67738,381.873261 Z M687.324783,381.937826 L687.324783,385.563043 L691.800397,385.563043 L691.800397,381.937826 L687.324783,381.937826 Z M687.324783,386.543478 L687.324783,390.185435 L691.807528,390.185435 L691.807528,386.543478 L687.324783,386.543478 Z M693.033984,386.579348 L693.033984,390.185435 L697.490584,390.185435 L697.490584,386.579348 L693.033984,386.579348 Z M693.014969,391.185 L693.014969,394.791087 L697.490584,394.791087 L697.490584,391.185 L693.014969,391.185 Z M681.689265,391.194565 L681.689265,394.838913 L686.117342,394.838913 L686.117342,391.194565 L681.689265,391.194565 Z M707.860793,391.20413 L712.234203,391.20413 L712.234203,394.781522 L707.860793,394.781522 L707.860793,391.20413 Z M693.033984,395.809783 L693.033984,399.41587 L697.500091,399.41587 L697.500091,395.809783 L693.033984,395.809783 Z M687.315276,395.828913 L687.315276,399.451739 L691.800397,399.451739 L691.800397,395.828913 L687.315276,395.828913 Z M718.36173,399.023696 C718.642199,399.023696 726.597526,399.191087 727.916679,399.265217 C741.880691,400.00413 742.225335,402.713478 743.644316,407.754348 C744.043627,409.203478 743.775043,410.736304 743.382862,412.202174 C743.114278,413.22087 742.353685,417.051739 733.402456,417.042174 C731.203867,417.042174 718.689736,416.528043 718.36173,416.528043 L718.36173,399.023696 Z M687.315276,400.441739 L687.315276,404.028696 L691.817035,404.028696 L691.817035,400.441739 L687.315276,400.441739 Z M681.689265,400.49913 L681.689265,404.112391 L686.126849,404.112391 L686.126849,400.49913 L681.689265,400.49913 Z M676.044239,400.55413 L676.044239,404.188913 L680.519853,404.188913 L680.519853,400.55413 L676.044239,400.55413 Z M693.005462,405.018696 L693.005462,408.624783 L697.490584,408.624783 L697.490584,405.018696 L693.005462,405.018696 Z M703.311497,405.066522 L707.722936,405.066522 L707.722936,408.588913 L703.311497,408.588913 L703.311497,405.066522 Z M681.679757,405.159783 L681.679757,408.756304 L686.117342,408.756304 L686.117342,405.159783 L681.679757,405.159783 Z M676.034731,405.233913 L676.034731,408.887826 L680.500838,408.887826 L680.500838,405.233913 L676.034731,405.233913 Z M693.024477,409.633913 L693.024477,413.24 L697.481076,413.24 L697.481076,409.633913 L693.024477,409.633913 Z M703.292482,409.688913 L707.713428,409.688913 L707.713428,413.211304 L703.292482,413.211304 L703.292482,409.688913 Z M687.324783,409.688913 L687.324783,413.285435 L691.800397,413.285435 L691.800397,409.691304 L687.324783,409.688913 Z M681.705903,409.765435 L681.705903,413.416957 L686.117342,413.416957 L686.117342,409.765435 L681.705903,409.765435 Z M755.093617,412.501087 C756.49596,412.632609 757.914941,412.76413 759.371952,412.912391 L759.371952,417.228696 L755.093617,416.72413 L755.093617,412.501087 Z M681.689265,414.426087 L681.689265,418.041739 L686.117342,418.041739 L686.117342,414.426087 L681.689265,414.426087 Z M687.343798,418.928913 L687.343798,422.525435 L691.809905,422.525435 L691.809905,418.928913 L687.343798,418.928913 Z M698.781215,418.955217 L703.173639,418.955217 L703.173639,422.51587 L698.778838,422.51587 L698.781215,418.955217 Z M681.679757,419.098696 L681.679757,422.721522 L686.117342,422.721522 L686.117342,419.096304 L681.679757,419.098696 Z M721.603758,419.311522 L725.984298,419.311522 L725.984298,423.046739 C725.252227,423.01087 722.347713,422.879348 721.603758,422.850652 L721.603758,419.311522 Z M732.903317,419.777826 C734.015684,419.851957 735.092399,419.928478 736.188128,420.012174 C736.551786,420.031304 736.913068,420.06 737.27435,420.086304 L737.27435,423.859783 C736.188128,423.776087 733.274106,423.541739 732.90094,423.515435 L732.903317,419.777826 Z M687.322406,423.553696 L687.322406,427.150217 L691.798021,427.150217 L691.798021,423.553696 L687.322406,423.553696 Z M680.498461,423.816739 C678.977275,423.900435 677.50838,423.974565 676.041862,424.058261 L676.041862,427.805435 L680.498461,427.525652 L680.498461,423.816739 Z M698.686141,428.056522 L698.686141,431.681739 L703.161755,431.681739 L703.161755,428.056522 L698.686141,428.056522 Z M693.0221,428.066087 L693.0221,431.672174 L697.490584,431.672174 L697.490584,428.066087 L693.0221,428.066087 Z M710.106919,428.121087 L714.537374,428.121087 L714.537374,431.653044 L710.109296,431.653044 L710.106919,428.121087 Z M687.322406,428.178478 L687.322406,431.775 L691.798021,431.775 L691.798021,428.176087 L687.322406,428.178478 Z M686.114965,428.226304 L681.67738,428.42 L681.67738,432.128913 C683.181928,432.064348 684.648447,431.990217 686.114965,431.923261 L686.114965,428.226304 Z M680.498461,428.477391 L676.029978,428.757174 L676.029978,432.504348 C677.55354,432.401522 679.012928,432.30587 680.498461,432.193478 L680.498461,428.477391 Z M721.332796,428.850435 L721.332796,432.597609 C722.872997,432.726739 724.349023,432.848696 725.806034,432.980217 C725.844063,432.858261 725.872586,432.812826 725.872586,432.774565 C725.879716,432.035652 725.879716,431.308696 725.889224,430.569783 C725.889224,429.223478 725.889224,429.223478 724.589085,429.103913 C724.460735,429.094348 724.330008,429.065652 724.199281,429.056087 C723.253294,428.981957 722.307306,428.917391 721.33042,428.850435 L721.332796,428.850435 Z M743.836841,431.222609 L743.836841,435.230435 L748.24828,435.959783 L748.24828,431.877826 C746.750863,431.653043 745.312867,431.447391 743.836841,431.222609 Z M749.379662,432.064348 L749.379662,433.205 C749.379662,433.558913 749.379662,433.903261 749.38917,434.25 C749.398677,434.716304 749.296472,435.278261 749.370155,435.696739 C749.392751,435.828281 749.443877,435.953198 749.519897,436.062609 C749.797988,436.426087 750.613249,436.380652 751.200332,436.493043 C752.072637,436.660435 752.944942,436.808696 753.826754,436.968913 L753.826754,432.803261 C752.353105,432.559348 750.92224,432.315435 749.382039,432.061957 L749.379662,432.064348 Z M698.705155,432.681304 L698.705155,436.287391 L703.161755,436.287391 L703.161755,432.681304 L698.705155,432.681304 Z M687.341421,432.793696 L687.341421,436.406956 L691.814659,436.406956 L691.814659,432.793696 L687.341421,432.793696 Z M755.015181,433.016087 L755.015181,437.20087 L759.38859,438.097609 L759.38859,433.82913 C757.922072,433.549348 756.481699,433.288696 755.015181,433.016087 Z M721.339927,433.549348 L721.339927,437.313261 C722.844475,437.454348 724.310993,437.593043 725.844063,437.743696 L725.844063,433.941522 L721.339927,433.549348 Z M743.827334,436.258696 L743.827334,440.266522 C745.303359,440.536739 746.762747,440.797391 748.257788,441.079565 L748.257788,436.995217 C746.779385,436.74413 745.322374,436.500217 743.827334,436.258696 Z M698.695648,437.277391 L698.695648,441.385652 L703.171262,441.385652 L703.171262,437.277391 L698.695648,437.277391 Z M704.369196,437.416087 L704.369196,441.526739 L708.835303,441.526739 L708.835303,437.416087 L704.369196,437.416087 Z M709.976193,437.499783 C709.976193,438.836522 709.966685,440.087174 710.004715,441.340217 C710.004715,441.471739 710.273299,441.684565 710.439679,441.703696 C711.090937,441.777826 711.758832,441.799348 712.417221,441.835217 C713.123146,441.863913 713.819564,441.899783 714.525489,441.938043 L714.525489,437.73413 C712.975781,437.66 711.506886,437.58587 709.976193,437.499783 Z M715.694901,437.810652 L715.694901,442.031304 C717.192318,442.15087 718.65646,442.272826 720.208545,442.404348 L720.208545,439.630435 C720.208545,438.21 720.208545,438.200435 718.796694,438.061739 C717.774647,437.966087 716.752601,437.894348 715.694901,437.808261 L715.694901,437.810652 Z M727.003968,438.846087 L727.003968,443.143261 L731.470075,443.731522 L731.470075,439.367391 L727.003968,438.841304 L727.003968,438.846087 Z M732.696531,439.537174 L732.696531,443.908478 C734.191571,444.142826 735.648582,444.365217 737.141246,444.601957 L737.141246,440.173261 C735.629567,439.958043 734.17018,439.752391 732.696531,439.537174 Z M743.801188,441.275652 C743.801188,442.777391 743.791681,444.142826 743.808319,445.496304 C743.808319,445.627826 743.95806,445.831087 744.069772,445.859783 C745.453101,446.158696 746.836429,446.431304 748.264918,446.720652 L748.264918,442.105435 C746.791269,441.835217 745.341389,441.565 743.798811,441.275652 L743.801188,441.275652 Z M749.379662,442.358913 C749.379662,443.841522 749.379662,445.235652 749.398677,446.615435 C749.398677,446.758913 749.546042,447.000435 749.667261,447.02913 C751.031575,447.363913 752.424411,447.674783 753.874291,448 C753.874291,446.486304 753.883799,445.020435 753.855276,443.552174 C753.855276,443.432609 753.605707,443.236522 753.43695,443.198261 C752.581283,442.992609 751.720862,442.825217 750.855688,442.648261 C750.382694,442.552609 749.9097,442.468913 749.382039,442.358913 L749.379662,442.358913 Z" transform="translate(-676 -338)"/>
</svg>
