<svg xmlns="http://www.w3.org/2000/svg" width="95" height="100" viewBox="0 0 95 100">
  <path fill="#F36F2B" d="M87.3390935,46.0484736 C84.3421838,49.4205359 81.4064023,53.053056 79.3573865,58.0648259 C78.4248154,60.3792074 76.2077379,61.8813331 73.7151763,61.8813331 C71.2076178,61.8813331 68.9905404,60.3792074 68.0426464,58.0496298 C65.6723411,52.225114 62.0791466,48.2556655 58.5928856,44.4237987 C57.7214426,43.4582749 56.8498366,42.4925876 55.9937165,41.4963447 C55.9479111,41.5117042 55.9169395,41.5270637 55.8714601,41.5422598 C52.4769729,42.5690583 49.8621549,47.0752721 51.4371422,50.7385112 C52.5074555,53.2520759 60.015134,52.7770754 59.3730439,58.1873751 C58.8378873,62.6167914 64.6173506,63.7816619 66.6663664,63.5672826 C68.7153822,63.3220209 71.8651938,66.9393449 70.2748837,68.5333008 C68.7002224,70.1274201 65.7183094,70.1886947 66.1770151,74.2963787 C66.2992714,75.4918047 69.9081147,75.3387 69.9081147,77.1471986 C69.9081147,78.9710567 68.0428094,81.0403399 69.4798916,83.1401786 C69.7858584,83.5998196 70.106822,83.9524344 70.4432714,84.2282517 C63.5320406,90.6044021 54.3117956,94.5127394 44.2047849,94.5127394 C22.8439992,94.5127394 5.47398557,77.1011201 5.47398557,55.6891699 C5.47398557,49.1906337 7.07961846,43.0595817 9.90830348,37.664478 C9.89298069,44.6383415 13.6085945,50.4319749 15.3516435,52.1791989 C21.0396591,57.8654793 29.2813645,56.0721768 30.336192,60.8388484 C31.4065052,65.5903239 24.6786589,65.6056834 25.1222048,69.2380401 C25.5807475,72.8859197 34.3422868,73.851607 32.3852078,77.2081464 C29.8010354,81.6682817 34.1282567,81.9901775 32.874559,87.4924707 C32.2018233,90.4967222 36.5288817,91.0790757 38.1345145,88.7954133 C39.3577297,87.0481892 39.1130541,84.902272 41.5748071,82.2815176 C44.5870396,79.0627235 51.5748843,78.5416445 50.7948891,73.2230115 C49.4647404,64.3947344 40.9020714,63.0151578 37.1711348,60.9458747 C32.9356872,58.6162971 33.9755179,53.0218469 33.0579435,50.355014 C31.7736002,46.5692258 27.4157332,51.4126949 25.0915593,49.205503 C21.2690119,45.5883424 25.7796178,40.4690561 28.9905575,40.5764092 C35.7642092,40.7909519 37.8437075,47.3970044 40.3359432,47.1669388 C42.7672137,46.9523961 44.342201,43.5497782 44.7702611,41.7412796 C45.6725127,37.8022233 43.2412422,39.5648068 42.2627026,37.5108831 C40.9477138,34.7674162 46.880405,32.1464985 49.1739334,30.1232938 C49.5257056,29.8167575 49.785541,29.5255807 49.9231201,29.2496001 C50.6115046,27.9009058 49.709253,26.873944 48.1800711,25.9389757 C45.1221963,24.0842352 39.5411142,22.6129919 39.2812787,19.7162569 C39.1282138,17.9381505 42.5228641,17.0799796 46.3912168,16.9267115 C47.0333069,16.9574305 47.6602373,17.0187051 48.3026534,17.0799796 C48.623617,15.2559581 49.1434508,13.4626556 49.8468321,11.7461506 C47.9966866,11.5008889 46.1160586,11.3781763 44.2046219,11.3781763 C19.8316037,11.3781763 0,31.2572819 0,55.6886797 C-0.000163008415,80.1208945 19.8316037,100 44.2046219,100 C68.57764,100 88.4095698,80.1207311 88.4095698,55.6893333 C88.4095698,52.3787089 88.0424748,49.1447187 87.3390935,46.0484736 Z M71.6351889,0.0984261241 C59.1565687,1.28078029 50.6097115,13.4012177 52.787667,25.7745965 C54.9993651,38.3434003 66.5602479,42.2121952 72.2974921,56.3207065 C72.8145548,57.592113 74.6003119,57.5984856 75.1170486,56.3269156 C81.4769849,40.6788602 95,37.6250989 95,21.3422389 C94.999837,8.86951362 84.326046,-1.1040261 71.6351889,0.0984261241 Z M73.7084929,32.6131656 C67.4985243,32.6131656 62.4643355,27.567082 62.4643355,21.3422389 C62.4643355,15.1175593 67.4985243,10.0714757 73.7084929,10.0714757 C79.9184615,10.0714757 84.9523243,15.1175593 84.9523243,21.3422389 C84.9523243,27.5669186 79.9181355,32.6131656 73.7084929,32.6131656 Z"/>
</svg>
