<svg xmlns="http://www.w3.org/2000/svg" width="67" height="87" viewBox="0 0 67 87">
  <g fill="#F36F2B" fill-rule="evenodd">
    <path d="M51.3275862,52.5961538 C53.1092043,54.3846243 54,56.5192184 54,59 C54,61.4807816 53.1092043,63.6153757 51.3275862,65.4038462 C49.6034397,67.134624 47.4195534,68 44.7758621,68 C42.1896422,68 40.0344914,67.134624 38.3103448,65.4038462 L27.5344828,54.7596154 C26.3850517,53.6057635 24.9195491,53.0288462 23.137931,53.0288462 C21.4137845,53.0288462 19.9770172,53.6057635 18.8275862,54.7596154 C17.6206836,55.9711599 17.0172414,57.3846073 17.0172414,59 C17.0172414,60.6153927 17.6206836,62.0288401 18.8275862,63.2403846 C19.9770172,64.3942365 21.4137845,64.9711538 23.137931,64.9711538 C24.9195491,64.9711538 26.3850517,64.3942365 27.5344828,63.2403846 L30.8965517,59.9519231 L33.0517241,62.1153846 L29.6896552,65.4038462 C27.9655086,67.134624 25.7816224,68 23.137931,68 C20.5517112,68 18.3965603,67.134624 16.6724138,65.4038462 C14.8907957,63.6153757 14,61.4807816 14,59 C14,56.5192184 14.8907957,54.3846243 16.6724138,52.5961538 C18.3965603,50.865376 20.5517112,50 23.137931,50 C25.7816224,50 27.9655086,50.865376 29.6896552,52.5961538 L40.4655172,63.2403846 C41.6149483,64.3942365 43.0517155,64.9711538 44.7758621,64.9711538 C46.5574802,64.9711538 48.0229828,64.3942365 49.1724138,63.2403846 C50.3218448,62.0865327 50.8965517,60.6730853 50.8965517,59 C50.8965517,57.3269147 50.3218448,55.9134673 49.1724138,54.7596154 C48.0229828,53.6057635 46.5574802,53.0288462 44.7758621,53.0288462 C43.0517155,53.0288462 41.6149483,53.6057635 40.4655172,54.7596154 L37.1034483,58.0480769 L34.9482759,55.8846154 L38.3103448,52.5961538 C40.0344914,50.865376 42.2183776,50 44.862069,50 C47.4482888,50 49.6034397,50.865376 51.3275862,52.5961538 Z"/>
    <path d="M58.5748503,78.8468571 L58.5748503,37.2857143 L8.4251497,37.2857143 L8.4251497,78.8468571 L58.5748503,78.8468571 Z M20.5613772,20.7805714 L20.5613772,29.1325714 L46.4386228,29.1325714 L46.4386228,20.7805714 C46.4386228,18.5268459 45.8535488,16.4057242 44.6833832,14.4171429 C43.5132177,12.4285615 41.9251597,10.8542915 39.9191617,9.69428571 C37.9131636,8.53427991 35.7734645,7.95428571 33.5,7.95428571 C31.2265355,7.95428571 29.0868364,8.53427991 27.0808383,9.69428571 C25.0748403,10.8542915 23.4867823,12.4285615 22.3166168,14.4171429 C21.1464512,16.4057242 20.5613772,18.5268459 20.5613772,20.7805714 Z M58.5748503,29.1325714 C60.8483148,29.1325714 62.8208499,29.927992 64.492515,31.5188571 C66.16418,33.1097222 67,35.0319887 67,37.2857143 L67,78.8468571 C67,81.1005827 66.16418,83.0228492 64.492515,84.6137143 C62.8208499,86.2045794 60.8483148,87 58.5748503,87 L8.4251497,87 C6.15168524,87 4.17915007,86.2045794 2.50748503,84.6137143 C0.835819985,83.0228492 0,81.1005827 0,78.8468571 L0,37.2857143 C0,35.0319887 0.835819985,33.1097222 2.50748503,31.5188571 C4.17915007,29.927992 6.15168524,29.1325714 8.4251497,29.1325714 L12.5374251,29.1325714 L12.5374251,20.7805714 C12.5374251,17.0022668 13.4735435,13.5223016 15.3458084,10.3405714 C17.2180732,7.15884123 19.758966,4.64000928 22.9685629,2.784 C26.1781598,0.92799072 29.6886037,0 33.5,0 C37.3113963,0 40.8218402,0.92799072 44.0314371,2.784 C47.241034,4.64000928 49.7819268,7.15884123 51.6541916,10.3405714 C53.5264565,13.5223016 54.4625749,17.0022668 54.4625749,20.7805714 L54.4625749,29.1325714 L58.5748503,29.1325714 Z"/>
  </g>
</svg>
