<svg xmlns="http://www.w3.org/2000/svg" width="18" height="18" viewBox="0 0 18 18">
  <path fill="#FFF" fill-rule="evenodd" d="M268.546875,207 C268.953127,207 269.296874,207.132811 269.578125,207.398438 C269.859376,207.664064 270,207.999998 270,208.40625 L270,223.453125 C270,223.859377 269.859376,224.218748 269.578125,224.53125 C269.296874,224.843752 268.953127,225 268.546875,225 L253.546875,225 C253.140623,225 252.781252,224.843752 252.46875,224.53125 C252.156248,224.218748 252,223.859377 252,223.453125 L252,208.40625 C252,207.999998 252.148436,207.664064 252.445312,207.398438 C252.742189,207.132811 253.109373,207 253.546875,207 L268.546875,207 Z M258,222 L258,214 L255,214 L255,222 L258,222 Z M255.40678,212.59322 C255.677967,212.864408 256.033896,213 256.474576,213 C256.915256,213 257.27966,212.855934 257.567797,212.567797 C257.855934,212.27966 258,211.932205 258,211.525424 C258,211.084744 257.864408,210.72034 257.59322,210.432203 C257.322033,210.144066 256.966104,210 256.525424,210 C256.084744,210 255.72034,210.144066 255.432203,210.432203 C255.144066,210.72034 255,211.084744 255,211.525424 C255,211.932205 255.135592,212.288134 255.40678,212.59322 Z M267,222 L267,217.428571 C267,216.300947 266.722225,215.447622 266.166667,214.868571 C265.611108,214.289521 264.888893,214 264,214 C263.047614,214 262.253971,214.426662 261.619048,215.28 L261.619048,214.182857 L259,214.182857 L259,222 L261.619048,222 L261.619048,217.565714 C261.619048,217.260951 261.650793,217.04762 261.714286,216.925714 C261.968255,216.316187 262.412695,216.011429 263.047619,216.011429 C263.936512,216.011429 264.380952,216.575232 264.380952,217.702857 L264.380952,222 L267,222 Z" transform="translate(-252 -207)"/>
</svg>
