<?xml version="1.0" encoding="UTF-8"?>
<svg width="12px" height="12px" viewBox="0 0 12 12" version="1.1" xmlns="http://www.w3.org/2000/svg" xmlns:xlink="http://www.w3.org/1999/xlink">
    <!-- Generator: Sketch 50.2 (55047) - http://www.bohemiancoding.com/sketch -->
    <title>Grid - simple-line-icons</title>
    <desc>Created with Sketch.</desc>
    <defs></defs>
    <g id="Artizyou" stroke="none" stroke-width="1" fill="none" fill-rule="evenodd">
        <g id="Add-creative---step-1-desktop" transform="translate(-1116.000000, -133.000000)" fill="#868686">
            <path d="M1127.25,145 L1123.5,145 C1123.28906,145 1123.11133,144.927735 1122.9668,144.783203 C1122.82226,144.638671 1122.75,144.460939 1122.75,144.25 L1122.75,140.5 C1122.75,140.289061 1122.82226,140.111329 1122.9668,139.966797 C1123.11133,139.822265 1123.28906,139.75 1123.5,139.75 L1127.25,139.75 C1127.46094,139.75 1127.63867,139.822265 1127.7832,139.966797 C1127.92774,140.111329 1128,140.289061 1128,140.5 L1128,144.25 C1128,144.460939 1127.92774,144.638671 1127.7832,144.783203 C1127.63867,144.927735 1127.46094,145 1127.25,145 Z M1127.25,140.5 L1123.5,140.5 L1123.5,144.25 L1127.25,144.25 L1127.25,140.5 Z M1127.25,138.25 L1123.5,138.25 C1123.28906,138.25 1123.11133,138.177735 1122.9668,138.033203 C1122.82226,137.888671 1122.75,137.710939 1122.75,137.5 L1122.75,133.75 C1122.75,133.539061 1122.82226,133.361329 1122.9668,133.216797 C1123.11133,133.072265 1123.28906,133 1123.5,133 L1127.25,133 C1127.46094,133 1127.63867,133.072265 1127.7832,133.216797 C1127.92774,133.361329 1128,133.539061 1128,133.75 L1128,137.5 C1128,137.710939 1127.92774,137.888671 1127.7832,138.033203 C1127.63867,138.177735 1127.46094,138.25 1127.25,138.25 Z M1127.25,133.75 L1123.5,133.75 L1123.5,137.5 L1127.25,137.5 L1127.25,133.75 Z M1120.5,145 L1116.75,145 C1116.53906,145 1116.36133,144.927735 1116.2168,144.783203 C1116.07226,144.638671 1116,144.460939 1116,144.25 L1116,140.5 C1116,140.289061 1116.07226,140.111329 1116.2168,139.966797 C1116.36133,139.822265 1116.53906,139.75 1116.75,139.75 L1120.5,139.75 C1120.71094,139.75 1120.88867,139.822265 1121.0332,139.966797 C1121.17774,140.111329 1121.25,140.289061 1121.25,140.5 L1121.25,144.25 C1121.25,144.460939 1121.17774,144.638671 1121.0332,144.783203 C1120.88867,144.927735 1120.71094,145 1120.5,145 Z M1120.5,140.5 L1116.75,140.5 L1116.75,144.25 L1120.5,144.25 L1120.5,140.5 Z M1120.5,138.25 L1116.75,138.25 C1116.53906,138.25 1116.36133,138.177735 1116.2168,138.033203 C1116.07226,137.888671 1116,137.710939 1116,137.5 L1116,133.75 C1116,133.539061 1116.07226,133.361329 1116.2168,133.216797 C1116.36133,133.072265 1116.53906,133 1116.75,133 L1120.5,133 C1120.71094,133 1120.88867,133.072265 1121.0332,133.216797 C1121.17774,133.361329 1121.25,133.539061 1121.25,133.75 L1121.25,137.5 C1121.25,137.710939 1121.17774,137.888671 1121.0332,138.033203 C1120.88867,138.177735 1120.71094,138.25 1120.5,138.25 Z M1120.5,133.75 L1116.75,133.75 L1116.75,137.5 L1120.5,137.5 L1120.5,133.75 Z" id="Grid---simple-line-icons"></path>
        </g>
    </g>
</svg>