<?xml version="1.0" encoding="utf-8"?>
<!-- Generator: Adobe Illustrator 23.0.6, SVG Export Plug-In . SVG Version: 6.00 Build 0)  -->
<svg version="1.1" id="Layer_1" xmlns="http://www.w3.org/2000/svg" xmlns:xlink="http://www.w3.org/1999/xlink" x="0px" y="0px"
	 width="13.7px" height="13.7px" viewBox="0 0 13.7 13.7" style="enable-background:new 0 0 13.7 13.7;" xml:space="preserve">
<style type="text/css">
	.st0{fill-rule:evenodd;clip-rule:evenodd;fill:#868686;}
</style>
<path class="st0" d="M6.8,0.1c0.9,0,1.8,0.2,2.6,0.5s1.5,0.8,2.1,1.4s1.1,1.3,1.4,2.1s0.5,1.7,0.5,2.6S13.4,8.6,13,9.4
	c-0.4,0.8-0.8,1.5-1.4,2.1s-1.3,1.1-2.1,1.4c-0.8,0.4-1.7,0.5-2.6,0.5S5,13.4,4.2,13c-0.8-0.4-1.5-0.8-2.1-1.4S1,10.3,0.6,9.4
	C0.3,8.6,0.1,7.8,0.1,6.8S0.3,5,0.6,4.2s0.8-1.5,1.4-2.1S3.4,1,4.2,0.6S5.9,0.1,6.8,0.1z M6.8,12.7c0.8,0,1.6-0.2,2.3-0.5
	c0.7-0.3,1.3-0.7,1.9-1.3c0.5-0.5,0.9-1.2,1.3-1.9c0.3-0.7,0.5-1.5,0.5-2.3s-0.2-1.6-0.5-2.3S11.5,3.2,11,2.7
	c-0.5-0.5-1.2-0.9-1.9-1.3S7.6,0.9,6.8,0.9S5.3,1.1,4.5,1.4S3.2,2.1,2.7,2.7S1.7,3.8,1.4,4.5S1,6,1,6.8s0.2,1.6,0.5,2.3
	c0.3,0.7,0.7,1.3,1.3,1.9s1.2,1,1.9,1.3C5.3,12.6,6,12.7,6.8,12.7z M6.2,10.6V9.5h1.1v1.1H6.2z M6.8,3c0.3,0,0.6,0,0.9,0.1
	C8,3.3,8.2,3.4,8.4,3.6c0.2,0.2,0.3,0.4,0.4,0.6C8.9,4.4,8.9,4.7,8.9,5c0,0.2,0,0.4-0.1,0.6S8.7,6,8.6,6.2C8.5,6.4,8.3,6.6,8.2,6.8
	C8,6.9,7.8,7.1,7.6,7.3C7.5,7.4,7.5,7.5,7.4,7.6C7.3,7.7,7.3,7.8,7.3,7.8c0,0.1,0,0.2,0,0.3s0,0.3,0,0.4h-1c0-0.2,0-0.5,0-0.6
	s0.1-0.3,0.1-0.4c0-0.1,0.1-0.2,0.2-0.3C6.7,7,6.8,6.9,7,6.7c0.2-0.2,0.3-0.4,0.4-0.5C7.6,6,7.7,5.9,7.7,5.8
	c0.1-0.1,0.1-0.2,0.2-0.4c0-0.1,0.1-0.3,0.1-0.4c0-0.2,0-0.3-0.1-0.5S7.7,4.3,7.6,4.2S7.4,4,7.3,4C7.2,3.9,7,3.9,6.8,3.9
	c-0.2,0-0.3,0-0.4,0.1C6.3,4,6.1,4.1,6,4.1C5.9,4.2,5.8,4.4,5.8,4.6C5.7,4.8,5.7,5,5.7,5.1h-1l0,0c0-0.3,0-0.6,0.1-0.9
	s0.2-0.5,0.4-0.7C5.5,3.4,5.7,3.2,6,3.2C6.2,3.1,6.5,3,6.8,3z"/>
</svg>
