<svg xmlns="http://www.w3.org/2000/svg" width="14" height="14" viewBox="0 0 14 14">
  <path fill="#868686" fill-rule="evenodd" d="M32.0893185,131.162163 L33.5365668,129.593131 L27.2187713,129.593131 L27.2187713,128.627572 L33.5365668,128.627572 L32.0893185,127.05854 L32.7016158,126.364545 L35.2343003,129.110352 L32.7016158,131.856158 L32.0893185,131.162163 Z M32.7572792,133.213974 L32.9799328,132.972585 L34.1210324,132.972585 C33.5458411,133.857684 32.8083085,134.56173 31.9084124,135.084744 C31.0085164,135.607757 30.0390553,135.86926 29,135.86926 C27.2744261,135.86926 25.8039994,135.210474 24.5886759,133.892883 C23.3733523,132.575291 22.7656997,130.98113 22.7656997,129.110352 C22.7656997,127.239573 23.3733523,125.645412 24.5886759,124.32782 C25.8039994,123.010229 27.2744261,122.351443 29,122.351443 C30.0390553,122.351443 31.0085164,122.612946 31.9084124,123.135959 C32.8083085,123.658973 33.5458411,124.363019 34.1210324,125.248118 L32.9799328,125.248118 L32.7572792,125.006729 C31.718224,123.880238 30.4658101,123.317002 29,123.317002 C27.5156354,123.317002 26.2539443,123.880238 25.2148891,125.006729 C24.1758338,126.133219 23.656314,127.50108 23.656314,129.110352 C23.656314,130.719624 24.1758338,132.087484 25.2148891,133.213974 C26.2539443,134.340465 27.5156354,134.903702 29,134.903702 C30.4658101,134.903702 31.718224,134.340465 32.7572792,133.213974 Z" transform="translate(-21.988 -122)"/>
</svg>
