<svg xmlns="http://www.w3.org/2000/svg" width="14" height="14" viewBox="0 0 14 14">
  <path fill="#868686" fill-rule="evenodd" d="M29.8935614,43.017701 C29.5323214,43.017701 29.1754921,43.0859832 28.8230628,43.2225495 C28.4706335,43.3591159 28.1534519,43.5331252 27.8715085,43.7445828 C27.5895651,43.9560403 27.3626922,44.1851159 27.1908829,44.4318164 C27.0190736,44.6785169 26.9331703,44.9119978 26.9331703,45.1322661 L26.9331703,47.2468312 C26.9331703,47.6609356 27.0366948,48.1895716 27.243747,48.832755 C27.4507992,49.4759384 27.7745887,49.9737373 28.2151253,50.3261666 C28.3296649,50.4142739 28.4155682,50.526609 28.472838,50.6631754 C28.5301077,50.7997417 28.5499316,50.942914 28.5323101,51.0926964 C28.5058779,51.2336681 28.4508117,51.3636245 28.3671097,51.4825694 C28.2834078,51.6015142 28.1754779,51.6918229 28.0433169,51.753498 L24.329612,53.5112302 C24.2767476,53.5288517 24.2040602,53.570702 24.1115475,53.6367825 C24.0190348,53.702863 23.9727792,53.8240088 23.9727792,54.0002234 L23.9727792,54.8592655 L35.8011276,54.8460494 L35.8011276,54.0266555 C35.8011276,53.7975764 35.7460613,53.6544042 35.6359272,53.5971344 C35.525793,53.5398647 35.4663215,53.5112302 35.4575107,53.5112302 L31.7702379,51.766714 C31.6380769,51.7050389 31.5279444,51.6147303 31.4398371,51.4957854 C31.3517298,51.3768405 31.2988662,51.2424789 31.2812447,51.0926964 C31.2636232,50.942914 31.2834471,50.7997417 31.3407168,50.6631754 C31.3979866,50.526609 31.4838899,50.4142739 31.5984295,50.3261666 C32.0565875,49.9737373 32.3803771,49.4737358 32.5698078,48.826147 C32.7592385,48.1785582 32.8539525,47.6521248 32.8539525,47.2468312 L32.8539525,45.1322661 C32.8539525,44.9031871 32.7658465,44.6653009 32.5896318,44.4186004 C32.4134172,44.1718999 32.1865443,43.945027 31.9090062,43.7379748 C31.6314682,43.5309226 31.3142866,43.3591159 30.9574519,43.2225495 C30.6006173,43.0859832 30.2459906,43.017701 29.8935614,43.017701 Z M29.8935614,42.171875 C30.3605302,42.171875 30.820884,42.259981 31.2746367,42.4361956 C31.7283894,42.6124103 32.133677,42.8414859 32.4905116,43.1234293 C32.8473462,43.4053727 33.138096,43.7225543 33.3627697,44.0749836 C33.5874434,44.4274128 33.6997785,44.7798368 33.6997785,45.1322661 L33.6997785,47.2468312 C33.6997785,47.5023424 33.6733467,47.7974975 33.6204823,48.1323053 C33.5676179,48.4671131 33.4795119,48.8085239 33.3561617,49.1565478 C33.2328114,49.5045717 33.0698153,49.8393745 32.8671685,50.1609662 C32.6645217,50.4825579 32.4178249,50.7578891 32.1270707,50.9869682 L35.8143436,52.7447004 L36.2306486,52.9759809 C36.5081866,53.1301687 36.6469536,53.3306099 36.6469536,53.5773104 L36.6469536,54.8592655 C36.6469536,55.0883445 36.5654555,55.2843803 36.402457,55.4473789 C36.2394585,55.6103774 36.0434226,55.6918755 35.8143436,55.6918755 L23.9727792,55.6918755 C23.7348894,55.6918755 23.5344483,55.6103774 23.3714497,55.4473789 C23.2084512,55.2843803 23.1269531,55.0883445 23.1269531,54.8592655 L23.1269531,53.5773104 C23.1269531,53.3482314 23.2679227,53.1521955 23.5498661,52.989197 L23.9727792,52.7447004 L27.6864841,50.9869682 C27.3869192,50.7490784 27.1358171,50.4627339 26.9331703,50.1279261 C26.7305234,49.7931183 26.5653247,49.4517076 26.4375691,49.1036836 C26.3098135,48.7556597 26.2195048,48.4164516 26.1666404,48.0860492 C26.113776,47.7556468 26.0873442,47.4759102 26.0873442,47.2468312 L26.0873442,45.1322661 C26.0873442,44.7798368 26.1974767,44.4274128 26.417745,44.0749836 C26.6380133,43.7225543 26.9265605,43.4053727 27.2833951,43.1234293 C27.6402297,42.8414859 28.04772,42.6124103 28.505878,42.4361956 C28.9640361,42.259981 29.4265926,42.171875 29.8935614,42.171875 Z" transform="translate(-22.988 -42)"/>
</svg>
